<?xml version="1.0" encoding="UTF-8"?>
<svg xmlns="http://www.w3.org/2000/svg" xmlns:xlink="http://www.w3.org/1999/xlink" viewBox="0 0 518.55 129.06">
  <defs>
    <style>
      .cls-1 {
        fill: url(#linear-gradient);
      }

      .cls-1, .cls-2 {
        stroke-width: 0px;
      }

      .cls-3 {
        isolation: isolate;
      }

      .cls-2 {
        fill: none;
      }

      .cls-4 {
        clip-path: url(#clippath);
      }

      .cls-5 {
        mix-blend-mode: overlay;
      }
    </style>
    <clipPath id="clippath">
      <rect class="cls-2" x="133.14" y=".59" width="385.41" height="128.47"/>
    </clipPath>
    <linearGradient id="linear-gradient" x1="191.76" y1="158.72" x2="518.28" y2="158.72" gradientUnits="userSpaceOnUse">
      <stop offset="0" stop-color="#606161" stop-opacity="0"/>
      <stop offset="1" stop-color="#231f20"/>
    </linearGradient>
  </defs>
  <g class="cls-3">
    <g id="Layer_1" data-name="Layer 1">
      <g class="cls-5">
        <g class="cls-4">
          <path class="cls-1" d="M211.49-1.6v-24.2h-3.17l-16.55,16.53V1.55h16.55v24.2h3.17l16.55-16.53V-1.6h-16.55ZM208.31-21.31V-1.62h-13.38l13.38-19.68ZM211.49,21.26V1.58h13.38l-13.38,19.68ZM247.77-1.6v-24.2h-3.17l-16.55,16.53V1.55h16.55v24.2h3.17l16.55-16.53V-1.6h-16.55ZM244.59-21.31V-1.62h-13.38l13.38-19.68ZM247.77,21.26V1.58h13.38l-13.38,19.68ZM284.05-1.6v-24.2h-3.17l-16.55,16.53V1.55h16.55v24.2h3.17l16.55-16.53V-1.6h-16.55ZM280.87-21.31V-1.62h-13.38l13.38-19.68ZM284.05,21.26V1.58h13.38l-13.38,19.68ZM320.33-1.6v-24.2h-3.17l-16.55,16.53V1.55h16.55v24.2h3.17l16.55-16.53V-1.6h-16.55ZM317.15-21.31V-1.62h-13.38l13.38-19.68ZM320.33,21.26V1.58h13.38l-13.38,19.68ZM356.61-1.6v-24.2h-3.17l-16.55,16.53V1.55h16.55v24.2h3.17l16.55-16.53V-1.6h-16.55ZM353.43-21.31V-1.62h-13.38l13.38-19.68ZM356.61,21.26V1.58h13.38l-13.38,19.68ZM392.89-1.6v-24.2h-3.17l-16.55,16.53V1.55h16.55v24.2h3.17l16.55-16.53V-1.6h-16.55ZM389.71-21.31V-1.62h-13.38l13.38-19.68ZM392.89,21.26V1.58h13.38l-13.38,19.68ZM429.16-1.6v-24.2h-3.17l-16.55,16.53V1.55h16.55v24.2h3.17l16.55-16.53V-1.6h-16.55ZM425.99-21.31V-1.62h-13.38l13.38-19.68ZM429.16,21.26V1.58h13.38l-13.38,19.68ZM465.44-1.6v-24.2h-3.17l-16.55,16.53V1.55h16.55v24.2h3.17l16.55-16.53V-1.6h-16.55ZM462.27-21.31V-1.62h-13.38l13.38-19.68ZM465.44,21.26V1.58h13.38l-13.38,19.68ZM501.72-1.6v-24.2h-3.17l-16.55,16.53V1.55h16.55v24.2h3.17l16.55-16.53V-1.6h-16.55ZM498.55-21.31V-1.62h-13.38l13.38-19.68ZM501.72,21.26V1.58h13.38l-13.38,19.68ZM211.49,22.83V-1.37h-3.17l-16.55,16.53v10.81h16.55v24.2h3.17l16.55-16.53v-10.81h-16.55ZM208.31,3.11v19.68h-13.38l13.38-19.68ZM211.49,45.68v-19.68h13.38l-13.38,19.68ZM247.77,22.83V-1.37h-3.17l-16.55,16.53v10.81h16.55v24.2h3.17l16.55-16.53v-10.81h-16.55ZM244.59,3.11v19.68h-13.38l13.38-19.68ZM247.77,45.68v-19.68h13.38l-13.38,19.68ZM284.05,22.83V-1.37h-3.17l-16.55,16.53v10.81h16.55v24.2h3.17l16.55-16.53v-10.81h-16.55ZM280.87,3.11v19.68h-13.38l13.38-19.68ZM284.05,45.68v-19.68h13.38l-13.38,19.68ZM320.33,22.83V-1.37h-3.17l-16.55,16.53v10.81h16.55v24.2h3.17l16.55-16.53v-10.81h-16.55ZM317.15,3.11v19.68h-13.38l13.38-19.68ZM320.33,45.68v-19.68h13.38l-13.38,19.68ZM356.61,22.83V-1.37h-3.17l-16.55,16.53v10.81h16.55v24.2h3.17l16.55-16.53v-10.81h-16.55ZM353.43,3.11v19.68h-13.38l13.38-19.68ZM356.61,45.68v-19.68h13.38l-13.38,19.68ZM392.89,22.83V-1.37h-3.17l-16.55,16.53v10.81h16.55v24.2h3.17l16.55-16.53v-10.81h-16.55ZM389.71,3.11v19.68h-13.38l13.38-19.68ZM392.89,45.68v-19.68h13.38l-13.38,19.68ZM429.16,22.83V-1.37h-3.17l-16.55,16.53v10.81h16.55v24.2h3.17l16.55-16.53v-10.81h-16.55ZM425.99,3.11v19.68h-13.38l13.38-19.68ZM429.16,45.68v-19.68h13.38l-13.38,19.68ZM465.44,22.83V-1.37h-3.17l-16.55,16.53v10.81h16.55v24.2h3.17l16.55-16.53v-10.81h-16.55ZM462.27,3.11v19.68h-13.38l13.38-19.68ZM465.44,45.68v-19.68h13.38l-13.38,19.68ZM501.72,22.83V-1.37h-3.17l-16.55,16.53v10.81h16.55v24.2h3.17l16.55-16.53v-10.81h-16.55ZM498.55,3.11v19.68h-13.38l13.38-19.68ZM501.72,45.68v-19.68h13.38l-13.38,19.68ZM211.49,47.25v-24.2h-3.17l-16.55,16.53v10.81h16.55v24.2h3.17l16.55-16.53v-10.81h-16.55ZM208.31,27.54v19.68h-13.38l13.38-19.68ZM211.49,70.11v-19.68h13.38l-13.38,19.68ZM247.77,47.25v-24.2h-3.17l-16.55,16.53v10.81h16.55v24.2h3.17l16.55-16.53v-10.81h-16.55ZM244.59,27.54v19.68h-13.38l13.38-19.68ZM247.77,70.11v-19.68h13.38l-13.38,19.68ZM284.05,47.25v-24.2h-3.17l-16.55,16.53v10.81h16.55v24.2h3.17l16.55-16.53v-10.81h-16.55ZM280.87,27.54v19.68h-13.38l13.38-19.68ZM284.05,70.11v-19.68h13.38l-13.38,19.68ZM320.33,47.25v-24.2h-3.17l-16.55,16.53v10.81h16.55v24.2h3.17l16.55-16.53v-10.81h-16.55ZM317.15,27.54v19.68h-13.38l13.38-19.68ZM320.33,70.11v-19.68h13.38l-13.38,19.68ZM356.61,47.25v-24.2h-3.17l-16.55,16.53v10.81h16.55v24.2h3.17l16.55-16.53v-10.81h-16.55ZM353.43,27.54v19.68h-13.38l13.38-19.68ZM356.61,70.11v-19.68h13.38l-13.38,19.68ZM392.89,47.25v-24.2h-3.17l-16.55,16.53v10.81h16.55v24.2h3.17l16.55-16.53v-10.81h-16.55ZM389.71,27.54v19.68h-13.38l13.38-19.68ZM392.89,70.11v-19.68h13.38l-13.38,19.68ZM429.16,47.25v-24.2h-3.17l-16.55,16.53v10.81h16.55v24.2h3.17l16.55-16.53v-10.81h-16.55ZM425.99,27.54v19.68h-13.38l13.38-19.68ZM429.16,70.11v-19.68h13.38l-13.38,19.68ZM465.44,47.25v-24.2h-3.17l-16.55,16.53v10.81h16.55v24.2h3.17l16.55-16.53v-10.81h-16.55ZM462.27,27.54v19.68h-13.38l13.38-19.68ZM465.44,70.11v-19.68h13.38l-13.38,19.68ZM501.72,47.25v-24.2h-3.17l-16.55,16.53v10.81h16.55v24.2h3.17l16.55-16.53v-10.81h-16.55ZM498.55,27.54v19.68h-13.38l13.38-19.68ZM501.72,70.11v-19.68h13.38l-13.38,19.68ZM211.49,71.67v-24.2h-3.17l-16.55,16.53v10.81h16.55v24.2h3.17l16.55-16.53v-10.81h-16.55ZM208.31,51.96v19.68h-13.38l13.38-19.68ZM211.49,94.53v-19.68h13.38l-13.38,19.68ZM247.77,71.67v-24.2h-3.17l-16.55,16.53v10.81h16.55v24.2h3.17l16.55-16.53v-10.81h-16.55ZM244.59,51.96v19.68h-13.38l13.38-19.68ZM247.77,94.53v-19.68h13.38l-13.38,19.68ZM284.05,71.67v-24.2h-3.17l-16.55,16.53v10.81h16.55v24.2h3.17l16.55-16.53v-10.81h-16.55ZM280.87,51.96v19.68h-13.38l13.38-19.68ZM284.05,94.53v-19.68h13.38l-13.38,19.68ZM320.33,71.67v-24.2h-3.17l-16.55,16.53v10.81h16.55v24.2h3.17l16.55-16.53v-10.81h-16.55ZM317.15,51.96v19.68h-13.38l13.38-19.68ZM320.33,94.53v-19.68h13.38l-13.38,19.68ZM356.61,71.67v-24.2h-3.17l-16.55,16.53v10.81h16.55v24.2h3.17l16.55-16.53v-10.81h-16.55ZM353.43,51.96v19.68h-13.38l13.38-19.68ZM356.61,94.53v-19.68h13.38l-13.38,19.68ZM392.89,71.67v-24.2h-3.17l-16.55,16.53v10.81h16.55v24.2h3.17l16.55-16.53v-10.81h-16.55ZM389.71,51.96v19.68h-13.38l13.38-19.68ZM392.89,94.53v-19.68h13.38l-13.38,19.68ZM429.16,71.67v-24.2h-3.17l-16.55,16.53v10.81h16.55v24.2h3.17l16.55-16.53v-10.81h-16.55ZM425.99,51.96v19.68h-13.38l13.38-19.68ZM429.16,94.53v-19.68h13.38l-13.38,19.68ZM465.44,71.67v-24.2h-3.17l-16.55,16.53v10.81h16.55v24.2h3.17l16.55-16.53v-10.81h-16.55ZM462.27,51.96v19.68h-13.38l13.38-19.68ZM465.44,94.53v-19.68h13.38l-13.38,19.68ZM501.72,71.67v-24.2h-3.17l-16.55,16.53v10.81h16.55v24.2h3.17l16.55-16.53v-10.81h-16.55ZM498.55,51.96v19.68h-13.38l13.38-19.68ZM501.72,94.53v-19.68h13.38l-13.38,19.68ZM211.49,96.1v-24.2h-3.17l-16.55,16.53v10.81h16.55v24.2h3.17l16.55-16.53v-10.81h-16.55ZM208.31,76.38v19.68h-13.38l13.38-19.68ZM211.49,118.95v-19.68h13.38l-13.38,19.68ZM247.77,96.1v-24.2h-3.17l-16.55,16.53v10.81h16.55v24.2h3.17l16.55-16.53v-10.81h-16.55ZM244.59,76.38v19.68h-13.38l13.38-19.68ZM247.77,118.95v-19.68h13.38l-13.38,19.68ZM284.05,96.1v-24.2h-3.17l-16.55,16.53v10.81h16.55v24.2h3.17l16.55-16.53v-10.81h-16.55ZM280.87,76.38v19.68h-13.38l13.38-19.68ZM284.05,118.95v-19.68h13.38l-13.38,19.68ZM320.33,96.1v-24.2h-3.17l-16.55,16.53v10.81h16.55v24.2h3.17l16.55-16.53v-10.81h-16.55ZM317.15,76.38v19.68h-13.38l13.38-19.68ZM320.33,118.95v-19.68h13.38l-13.38,19.68ZM356.61,96.1v-24.2h-3.17l-16.55,16.53v10.81h16.55v24.2h3.17l16.55-16.53v-10.81h-16.55ZM353.43,76.38v19.68h-13.38l13.38-19.68ZM356.61,118.95v-19.68h13.38l-13.38,19.68ZM392.89,96.1v-24.2h-3.17l-16.55,16.53v10.81h16.55v24.2h3.17l16.55-16.53v-10.81h-16.55ZM389.71,76.38v19.68h-13.38l13.38-19.68ZM392.89,118.95v-19.68h13.38l-13.38,19.68ZM429.16,96.1v-24.2h-3.17l-16.55,16.53v10.81h16.55v24.2h3.17l16.55-16.53v-10.81h-16.55ZM425.99,76.38v19.68h-13.38l13.38-19.68ZM429.16,118.95v-19.68h13.38l-13.38,19.68ZM465.44,96.1v-24.2h-3.17l-16.55,16.53v10.81h16.55v24.2h3.17l16.55-16.53v-10.81h-16.55ZM462.27,76.38v19.68h-13.38l13.38-19.68ZM465.44,118.95v-19.68h13.38l-13.38,19.68ZM501.72,96.1v-24.2h-3.17l-16.55,16.53v10.81h16.55v24.2h3.17l16.55-16.53v-10.81h-16.55ZM498.55,76.38v19.68h-13.38l13.38-19.68ZM501.72,118.95v-19.68h13.38l-13.38,19.68ZM211.49,120.52v-24.2h-3.17l-16.55,16.53v10.81h16.55v24.2h3.17l16.55-16.53v-10.81h-16.55ZM208.31,100.8v19.68h-13.38l13.38-19.68ZM211.49,143.38v-19.68h13.38l-13.38,19.68ZM247.77,120.52v-24.2h-3.17l-16.55,16.53v10.81h16.55v24.2h3.17l16.55-16.53v-10.81h-16.55ZM244.59,100.8v19.68h-13.38l13.38-19.68ZM247.77,143.38v-19.68h13.38l-13.38,19.68ZM284.05,120.52v-24.2h-3.17l-16.55,16.53v10.81h16.55v24.2h3.17l16.55-16.53v-10.81h-16.55ZM280.87,100.8v19.68h-13.38l13.38-19.68ZM284.05,143.38v-19.68h13.38l-13.38,19.68ZM320.33,120.52v-24.2h-3.17l-16.55,16.53v10.81h16.55v24.2h3.17l16.55-16.53v-10.81h-16.55ZM317.15,100.8v19.68h-13.38l13.38-19.68ZM320.33,143.38v-19.68h13.38l-13.38,19.68ZM356.61,120.52v-24.2h-3.17l-16.55,16.53v10.81h16.55v24.2h3.17l16.55-16.53v-10.81h-16.55ZM353.43,100.8v19.68h-13.38l13.38-19.68ZM356.61,143.38v-19.68h13.38l-13.38,19.68ZM392.89,120.52v-24.2h-3.17l-16.55,16.53v10.81h16.55v24.2h3.17l16.55-16.53v-10.81h-16.55ZM389.71,100.8v19.68h-13.38l13.38-19.68ZM392.89,143.38v-19.68h13.38l-13.38,19.68ZM429.16,120.52v-24.2h-3.17l-16.55,16.53v10.81h16.55v24.2h3.17l16.55-16.53v-10.81h-16.55ZM425.99,100.8v19.68h-13.38l13.38-19.68ZM429.16,143.38v-19.68h13.38l-13.38,19.68ZM465.44,120.52v-24.2h-3.17l-16.55,16.53v10.81h16.55v24.2h3.17l16.55-16.53v-10.81h-16.55ZM462.27,100.8v19.68h-13.38l13.38-19.68ZM465.44,143.38v-19.68h13.38l-13.38,19.68ZM501.72,120.52v-24.2h-3.17l-16.55,16.53v10.81h16.55v24.2h3.17l16.55-16.53v-10.81h-16.55ZM498.55,100.8v19.68h-13.38l13.38-19.68ZM501.72,143.38v-19.68h13.38l-13.38,19.68ZM211.49,144.94v-24.2h-3.17l-16.55,16.53v10.81h16.55v24.2h3.17l16.55-16.53v-10.81h-16.55ZM208.31,125.23v19.68h-13.38l13.38-19.68ZM211.49,167.8v-19.68h13.38l-13.38,19.68ZM247.77,144.94v-24.2h-3.17l-16.55,16.53v10.81h16.55v24.2h3.17l16.55-16.53v-10.81h-16.55ZM244.59,125.23v19.68h-13.38l13.38-19.68ZM247.77,167.8v-19.68h13.38l-13.38,19.68ZM284.05,144.94v-24.2h-3.17l-16.55,16.53v10.81h16.55v24.2h3.17l16.55-16.53v-10.81h-16.55ZM280.87,125.23v19.68h-13.38l13.38-19.68ZM284.05,167.8v-19.68h13.38l-13.38,19.68ZM320.33,144.94v-24.2h-3.17l-16.55,16.53v10.81h16.55v24.2h3.17l16.55-16.53v-10.81h-16.55ZM317.15,125.23v19.68h-13.38l13.38-19.68ZM320.33,167.8v-19.68h13.38l-13.38,19.68ZM356.61,144.94v-24.2h-3.17l-16.55,16.53v10.81h16.55v24.2h3.17l16.55-16.53v-10.81h-16.55ZM353.43,125.23v19.68h-13.38l13.38-19.68ZM356.61,167.8v-19.68h13.38l-13.38,19.68ZM392.89,144.94v-24.2h-3.17l-16.55,16.53v10.81h16.55v24.2h3.17l16.55-16.53v-10.81h-16.55ZM389.71,125.23v19.68h-13.38l13.38-19.68ZM392.89,167.8v-19.68h13.38l-13.38,19.68ZM429.16,144.94v-24.2h-3.17l-16.55,16.53v10.81h16.55v24.2h3.17l16.55-16.53v-10.81h-16.55ZM425.99,125.23v19.68h-13.38l13.38-19.68ZM429.16,167.8v-19.68h13.38l-13.38,19.68ZM465.44,144.94v-24.2h-3.17l-16.55,16.53v10.81h16.55v24.2h3.17l16.55-16.53v-10.81h-16.55ZM462.27,125.23v19.68h-13.38l13.38-19.68ZM465.44,167.8v-19.68h13.38l-13.38,19.68ZM501.72,144.94v-24.2h-3.17l-16.55,16.53v10.81h16.55v24.2h3.17l16.55-16.53v-10.81h-16.55ZM498.55,125.23v19.68h-13.38l13.38-19.68ZM501.72,167.8v-19.68h13.38l-13.38,19.68ZM211.49,169.36v-24.2h-3.17l-16.55,16.53v10.81h16.55v24.2h3.17l16.55-16.53v-10.81h-16.55ZM208.31,149.65v19.68h-13.38l13.38-19.68ZM211.49,192.22v-19.68h13.38l-13.38,19.68ZM247.77,169.36v-24.2h-3.17l-16.55,16.53v10.81h16.55v24.2h3.17l16.55-16.53v-10.81h-16.55ZM244.59,149.65v19.68h-13.38l13.38-19.68ZM247.77,192.22v-19.68h13.38l-13.38,19.68ZM284.05,169.36v-24.2h-3.17l-16.55,16.53v10.81h16.55v24.2h3.17l16.55-16.53v-10.81h-16.55ZM280.87,149.65v19.68h-13.38l13.38-19.68ZM284.05,192.22v-19.68h13.38l-13.38,19.68ZM320.33,169.36v-24.2h-3.17l-16.55,16.53v10.81h16.55v24.2h3.17l16.55-16.53v-10.81h-16.55ZM317.15,149.65v19.68h-13.38l13.38-19.68ZM320.33,192.22v-19.68h13.38l-13.38,19.68ZM356.61,169.36v-24.2h-3.17l-16.55,16.53v10.81h16.55v24.2h3.17l16.55-16.53v-10.81h-16.55ZM353.43,149.65v19.68h-13.38l13.38-19.68ZM356.61,192.22v-19.68h13.38l-13.38,19.68ZM392.89,169.36v-24.2h-3.17l-16.55,16.53v10.81h16.55v24.2h3.17l16.55-16.53v-10.81h-16.55ZM389.71,149.65v19.68h-13.38l13.38-19.68ZM392.89,192.22v-19.68h13.38l-13.38,19.68ZM429.16,169.36v-24.2h-3.17l-16.55,16.53v10.81h16.55v24.2h3.17l16.55-16.53v-10.81h-16.55ZM425.99,149.65v19.68h-13.38l13.38-19.68ZM429.16,192.22v-19.68h13.38l-13.38,19.68ZM465.44,169.36v-24.2h-3.17l-16.55,16.53v10.81h16.55v24.2h3.17l16.55-16.53v-10.81h-16.55ZM462.27,149.65v19.68h-13.38l13.38-19.68ZM465.44,192.22v-19.68h13.38l-13.38,19.68ZM501.72,169.36v-24.2h-3.17l-16.55,16.53v10.81h16.55v24.2h3.17l16.55-16.53v-10.81h-16.55ZM498.55,149.65v19.68h-13.38l13.38-19.68ZM501.72,192.22v-19.68h13.38l-13.38,19.68ZM211.49,193.79v-24.2h-3.17l-16.55,16.53v10.81h16.55v24.2h3.17l16.55-16.53v-10.81h-16.55ZM208.31,174.07v19.68h-13.38l13.38-19.68ZM211.49,216.64v-19.68h13.38l-13.38,19.68ZM247.77,193.79v-24.2h-3.17l-16.55,16.53v10.81h16.55v24.2h3.17l16.55-16.53v-10.81h-16.55ZM244.59,174.07v19.68h-13.38l13.38-19.68ZM247.77,216.64v-19.68h13.38l-13.38,19.68ZM284.05,193.79v-24.2h-3.17l-16.55,16.53v10.81h16.55v24.2h3.17l16.55-16.53v-10.81h-16.55ZM280.87,174.07v19.68h-13.38l13.38-19.68ZM284.05,216.64v-19.68h13.38l-13.38,19.68ZM320.33,193.79v-24.2h-3.17l-16.55,16.53v10.81h16.55v24.2h3.17l16.55-16.53v-10.81h-16.55ZM317.15,174.07v19.68h-13.38l13.38-19.68ZM320.33,216.64v-19.68h13.38l-13.38,19.68ZM356.61,193.79v-24.2h-3.17l-16.55,16.53v10.81h16.55v24.2h3.17l16.55-16.53v-10.81h-16.55ZM353.43,174.07v19.68h-13.38l13.38-19.68ZM356.61,216.64v-19.68h13.38l-13.38,19.68ZM392.89,193.79v-24.2h-3.17l-16.55,16.53v10.81h16.55v24.2h3.17l16.55-16.53v-10.81h-16.55ZM389.71,174.07v19.68h-13.38l13.38-19.68ZM392.89,216.64v-19.68h13.38l-13.38,19.68ZM429.16,193.79v-24.2h-3.17l-16.55,16.53v10.81h16.55v24.2h3.17l16.55-16.53v-10.81h-16.55ZM425.99,174.07v19.68h-13.38l13.38-19.68ZM429.16,216.64v-19.68h13.38l-13.38,19.68ZM465.44,193.79v-24.2h-3.17l-16.55,16.53v10.81h16.55v24.2h3.17l16.55-16.53v-10.81h-16.55ZM462.27,174.07v19.68h-13.38l13.38-19.68ZM465.44,216.64v-19.68h13.38l-13.38,19.68ZM501.72,193.79v-24.2h-3.17l-16.55,16.53v10.81h16.55v24.2h3.17l16.55-16.53v-10.81h-16.55ZM498.55,174.07v19.68h-13.38l13.38-19.68ZM501.72,216.64v-19.68h13.38l-13.38,19.68ZM211.49,218.21v-24.2h-3.17l-16.55,16.53v10.81h16.55v24.2h3.17l16.55-16.53v-10.81h-16.55ZM208.31,198.5v19.68h-13.38l13.38-19.68ZM211.49,241.07v-19.68h13.38l-13.38,19.68ZM247.77,218.21v-24.2h-3.17l-16.55,16.53v10.81h16.55v24.2h3.17l16.55-16.53v-10.81h-16.55ZM244.59,198.5v19.68h-13.38l13.38-19.68ZM247.77,241.07v-19.68h13.38l-13.38,19.68ZM284.05,218.21v-24.2h-3.17l-16.55,16.53v10.81h16.55v24.2h3.17l16.55-16.53v-10.81h-16.55ZM280.87,198.5v19.68h-13.38l13.38-19.68ZM284.05,241.07v-19.68h13.38l-13.38,19.68ZM320.33,218.21v-24.2h-3.17l-16.55,16.53v10.81h16.55v24.2h3.17l16.55-16.53v-10.81h-16.55ZM317.15,198.5v19.68h-13.38l13.38-19.68ZM320.33,241.07v-19.68h13.38l-13.38,19.68ZM356.61,218.21v-24.2h-3.17l-16.55,16.53v10.81h16.55v24.2h3.17l16.55-16.53v-10.81h-16.55ZM353.43,198.5v19.68h-13.38l13.38-19.68ZM356.61,241.07v-19.68h13.38l-13.38,19.68ZM392.89,218.21v-24.2h-3.17l-16.55,16.53v10.81h16.55v24.2h3.17l16.55-16.53v-10.81h-16.55ZM389.71,198.5v19.68h-13.38l13.38-19.68ZM392.89,241.07v-19.68h13.38l-13.38,19.68ZM429.16,218.21v-24.2h-3.17l-16.55,16.53v10.81h16.55v24.2h3.17l16.55-16.53v-10.81h-16.55ZM425.99,198.5v19.68h-13.38l13.38-19.68ZM429.16,241.07v-19.68h13.38l-13.38,19.68ZM465.44,218.21v-24.2h-3.17l-16.55,16.53v10.81h16.55v24.2h3.17l16.55-16.53v-10.81h-16.55ZM462.27,198.5v19.68h-13.38l13.38-19.68ZM465.44,241.07v-19.68h13.38l-13.38,19.68ZM501.72,218.21v-24.2h-3.17l-16.55,16.53v10.81h16.55v24.2h3.17l16.55-16.53v-10.81h-16.55ZM498.55,198.5v19.68h-13.38l13.38-19.68ZM501.72,241.07v-19.68h13.38l-13.38,19.68ZM211.49,242.63v-24.2h-3.17l-16.55,16.53v10.81h16.55v24.2h3.17l16.55-16.53v-10.81h-16.55ZM208.31,222.92v19.68h-13.38l13.38-19.68ZM211.49,265.49v-19.68h13.38l-13.38,19.68ZM247.77,242.63v-24.2h-3.17l-16.55,16.53v10.81h16.55v24.2h3.17l16.55-16.53v-10.81h-16.55ZM244.59,222.92v19.68h-13.38l13.38-19.68ZM247.77,265.49v-19.68h13.38l-13.38,19.68ZM284.05,242.63v-24.2h-3.17l-16.55,16.53v10.81h16.55v24.2h3.17l16.55-16.53v-10.81h-16.55ZM280.87,222.92v19.68h-13.38l13.38-19.68ZM284.05,265.49v-19.68h13.38l-13.38,19.68ZM320.33,242.63v-24.2h-3.17l-16.55,16.53v10.81h16.55v24.2h3.17l16.55-16.53v-10.81h-16.55ZM317.15,222.92v19.68h-13.38l13.38-19.68ZM320.33,265.49v-19.68h13.38l-13.38,19.68ZM356.61,242.63v-24.2h-3.17l-16.55,16.53v10.81h16.55v24.2h3.17l16.55-16.53v-10.81h-16.55ZM353.43,222.92v19.68h-13.38l13.38-19.68ZM356.61,265.49v-19.68h13.38l-13.38,19.68ZM392.89,242.63v-24.2h-3.17l-16.55,16.53v10.81h16.55v24.2h3.17l16.55-16.53v-10.81h-16.55ZM389.71,222.92v19.68h-13.38l13.38-19.68ZM392.89,265.49v-19.68h13.38l-13.38,19.68ZM429.16,242.63v-24.2h-3.17l-16.55,16.53v10.81h16.55v24.2h3.17l16.55-16.53v-10.81h-16.55ZM425.99,222.92v19.68h-13.38l13.38-19.68ZM429.16,265.49v-19.68h13.38l-13.38,19.68ZM465.44,242.63v-24.2h-3.17l-16.55,16.53v10.81h16.55v24.2h3.17l16.55-16.53v-10.81h-16.55ZM462.27,222.92v19.68h-13.38l13.38-19.68ZM465.44,265.49v-19.68h13.38l-13.38,19.68ZM501.72,242.63v-24.2h-3.17l-16.55,16.53v10.81h16.55v24.2h3.17l16.55-16.53v-10.81h-16.55ZM498.55,222.92v19.68h-13.38l13.38-19.68ZM501.72,265.49v-19.68h13.38l-13.38,19.68ZM211.49,267.05v-24.2h-3.17l-16.55,16.53v10.81h16.55v24.2h3.17l16.55-16.53v-10.81h-16.55ZM208.31,247.34v19.68h-13.38l13.38-19.68ZM211.49,289.91v-19.68h13.38l-13.38,19.68ZM247.77,267.05v-24.2h-3.17l-16.55,16.53v10.81h16.55v24.2h3.17l16.55-16.53v-10.81h-16.55ZM244.59,247.34v19.68h-13.38l13.38-19.68ZM247.77,289.91v-19.68h13.38l-13.38,19.68ZM284.05,267.05v-24.2h-3.17l-16.55,16.53v10.81h16.55v24.2h3.17l16.55-16.53v-10.81h-16.55ZM280.87,247.34v19.68h-13.38l13.38-19.68ZM284.05,289.91v-19.68h13.38l-13.38,19.68ZM320.33,267.05v-24.2h-3.17l-16.55,16.53v10.81h16.55v24.2h3.17l16.55-16.53v-10.81h-16.55ZM317.15,247.34v19.68h-13.38l13.38-19.68ZM320.33,289.91v-19.68h13.38l-13.38,19.68ZM356.61,267.05v-24.2h-3.17l-16.55,16.53v10.81h16.55v24.2h3.17l16.55-16.53v-10.81h-16.55ZM353.43,247.34v19.68h-13.38l13.38-19.68ZM356.61,289.91v-19.68h13.38l-13.38,19.68ZM392.89,267.05v-24.2h-3.17l-16.55,16.53v10.81h16.55v24.2h3.17l16.55-16.53v-10.81h-16.55ZM389.71,247.34v19.68h-13.38l13.38-19.68ZM392.89,289.91v-19.68h13.38l-13.38,19.68ZM429.16,267.05v-24.2h-3.17l-16.55,16.53v10.81h16.55v24.2h3.17l16.55-16.53v-10.81h-16.55ZM425.99,247.34v19.68h-13.38l13.38-19.68ZM429.16,289.91v-19.68h13.38l-13.38,19.68ZM465.44,267.05v-24.2h-3.17l-16.55,16.53v10.81h16.55v24.2h3.17l16.55-16.53v-10.81h-16.55ZM462.27,247.34v19.68h-13.38l13.38-19.68ZM465.44,289.91v-19.68h13.38l-13.38,19.68ZM501.72,267.05v-24.2h-3.17l-16.55,16.53v10.81h16.55v24.2h3.17l16.55-16.53v-10.81h-16.55ZM498.55,247.34v19.68h-13.38l13.38-19.68ZM501.72,289.91v-19.68h13.38l-13.38,19.68ZM211.49,291.48v-24.2h-3.17l-16.55,16.53v10.81h16.55v24.2h3.17l16.55-16.53v-10.81h-16.55ZM208.31,271.76v19.68h-13.38l13.38-19.68ZM211.49,314.33v-19.68h13.38l-13.38,19.68ZM247.77,291.48v-24.2h-3.17l-16.55,16.53v10.81h16.55v24.2h3.17l16.55-16.53v-10.81h-16.55ZM244.59,271.76v19.68h-13.38l13.38-19.68ZM247.77,314.33v-19.68h13.38l-13.38,19.68ZM284.05,291.48v-24.2h-3.17l-16.55,16.53v10.81h16.55v24.2h3.17l16.55-16.53v-10.81h-16.55ZM280.87,271.76v19.68h-13.38l13.38-19.68ZM284.05,314.33v-19.68h13.38l-13.38,19.68ZM320.33,291.48v-24.2h-3.17l-16.55,16.53v10.81h16.55v24.2h3.17l16.55-16.53v-10.81h-16.55ZM317.15,271.76v19.68h-13.38l13.38-19.68ZM320.33,314.33v-19.68h13.38l-13.38,19.68ZM356.61,291.48v-24.2h-3.17l-16.55,16.53v10.81h16.55v24.2h3.17l16.55-16.53v-10.81h-16.55ZM353.43,271.76v19.68h-13.38l13.38-19.68ZM356.61,314.33v-19.68h13.38l-13.38,19.68ZM392.89,291.48v-24.2h-3.17l-16.55,16.53v10.81h16.55v24.2h3.17l16.55-16.53v-10.81h-16.55ZM389.71,271.76v19.68h-13.38l13.38-19.68ZM392.89,314.33v-19.68h13.38l-13.38,19.68ZM429.16,291.48v-24.2h-3.17l-16.55,16.53v10.81h16.55v24.2h3.17l16.55-16.53v-10.81h-16.55ZM425.99,271.76v19.68h-13.38l13.38-19.68ZM429.16,314.33v-19.68h13.38l-13.38,19.68ZM465.44,291.48v-24.2h-3.17l-16.55,16.53v10.81h16.55v24.2h3.17l16.55-16.53v-10.81h-16.55ZM462.27,271.76v19.68h-13.38l13.38-19.68ZM465.44,314.33v-19.68h13.38l-13.38,19.68ZM501.72,291.48v-24.2h-3.17l-16.55,16.53v10.81h16.55v24.2h3.17l16.55-16.53v-10.81h-16.55ZM498.55,271.76v19.68h-13.38l13.38-19.68ZM501.72,314.33v-19.68h13.38l-13.38,19.68ZM211.49,315.9v-24.2h-3.17l-16.55,16.53v10.81h16.55v24.2h3.17l16.55-16.53v-10.81h-16.55ZM208.31,296.19v19.68h-13.38l13.38-19.68ZM211.49,338.76v-19.68h13.38l-13.38,19.68ZM247.77,315.9v-24.2h-3.17l-16.55,16.53v10.81h16.55v24.2h3.17l16.55-16.53v-10.81h-16.55ZM244.59,296.19v19.68h-13.38l13.38-19.68ZM247.77,338.76v-19.68h13.38l-13.38,19.68ZM284.05,315.9v-24.2h-3.17l-16.55,16.53v10.81h16.55v24.2h3.17l16.55-16.53v-10.81h-16.55ZM280.87,296.19v19.68h-13.38l13.38-19.68ZM284.05,338.76v-19.68h13.38l-13.38,19.68ZM320.33,315.9v-24.2h-3.17l-16.55,16.53v10.81h16.55v24.2h3.17l16.55-16.53v-10.81h-16.55ZM317.15,296.19v19.68h-13.38l13.38-19.68ZM320.33,338.76v-19.68h13.38l-13.38,19.68ZM356.61,315.9v-24.2h-3.17l-16.55,16.53v10.81h16.55v24.2h3.17l16.55-16.53v-10.81h-16.55ZM353.43,296.19v19.68h-13.38l13.38-19.68ZM356.61,338.76v-19.68h13.38l-13.38,19.68ZM392.89,315.9v-24.2h-3.17l-16.55,16.53v10.81h16.55v24.2h3.17l16.55-16.53v-10.81h-16.55ZM389.71,296.19v19.68h-13.38l13.38-19.68ZM392.89,338.76v-19.68h13.38l-13.38,19.68ZM429.16,315.9v-24.2h-3.17l-16.55,16.53v10.81h16.55v24.2h3.17l16.55-16.53v-10.81h-16.55ZM425.99,296.19v19.68h-13.38l13.38-19.68ZM429.16,338.76v-19.68h13.38l-13.38,19.68ZM465.44,315.9v-24.2h-3.17l-16.55,16.53v10.81h16.55v24.2h3.17l16.55-16.53v-10.81h-16.55ZM462.27,296.19v19.68h-13.38l13.38-19.68ZM465.44,338.76v-19.68h13.38l-13.38,19.68ZM501.72,315.9v-24.2h-3.17l-16.55,16.53v10.81h16.55v24.2h3.17l16.55-16.53v-10.81h-16.55ZM498.55,296.19v19.68h-13.38l13.38-19.68ZM501.72,338.76v-19.68h13.38l-13.38,19.68Z"/>
        </g>
      </g>
    </g>
  </g>
</svg>