<svg width="165" height="53" viewBox="0 0 165 53" fill="none" xmlns="http://www.w3.org/2000/svg">
<path d="M86.6051 10.8918V3.70852H88.9325C89.8145 3.70852 90.3894 3.74445 90.6573 3.81631C91.0689 3.92411 91.4135 4.15931 91.6912 4.5219C91.9688 4.88122 92.1077 5.34671 92.1077 5.91837C92.1077 6.35936 92.0276 6.73011 91.8676 7.03064C91.7075 7.33117 91.5033 7.568 91.2551 7.74113C91.0101 7.91099 90.7602 8.02369 90.5054 8.07922C90.1591 8.14782 89.6577 8.18212 89.0011 8.18212H88.0555V10.8918H86.6051ZM88.0555 4.92369V6.96204H88.8492C89.4209 6.96204 89.8031 6.92448 89.9958 6.84935C90.1885 6.77421 90.3388 6.65662 90.4466 6.49655C90.5577 6.33649 90.6132 6.15029 90.6132 5.93797C90.6132 5.67664 90.5364 5.46104 90.3829 5.29118C90.2294 5.12132 90.035 5.01515 89.7998 4.97269C89.6267 4.94002 89.2788 4.92369 88.7561 4.92369H88.0555ZM93.2885 3.70852H94.7389V7.59903C94.7389 8.21641 94.7569 8.61657 94.7928 8.7995C94.8549 9.09349 95.0019 9.33032 95.2338 9.50999C95.469 9.68638 95.7891 9.77458 96.1942 9.77458C96.6058 9.77458 96.9161 9.69128 97.1251 9.52468C97.3342 9.35482 97.46 9.14739 97.5024 8.9024C97.5449 8.6574 97.5661 8.25071 97.5661 7.68233V3.70852H99.0165V7.48143C99.0165 8.34381 98.9773 8.95303 98.8989 9.30909C98.8205 9.66515 98.6751 9.96567 98.4628 10.2107C98.2538 10.4557 97.9728 10.6517 97.62 10.7987C97.2672 10.9424 96.8067 11.0143 96.2383 11.0143C95.5523 11.0143 95.0313 10.9359 94.6752 10.7791C94.3224 10.619 94.0431 10.4132 93.8373 10.1617C93.6315 9.90688 93.496 9.64065 93.4306 9.36299C93.3359 8.9514 93.2885 8.34381 93.2885 7.54023V3.70852ZM100.555 3.70852H103.426C103.995 3.70852 104.418 3.73302 104.695 3.78201C104.976 3.82775 105.226 3.92574 105.445 4.07601C105.667 4.22627 105.852 4.42717 105.999 4.67869C106.146 4.92696 106.219 5.20625 106.219 5.51658C106.219 5.85303 106.128 6.16173 105.945 6.44265C105.765 6.72358 105.52 6.93428 105.21 7.07474C105.648 7.20214 105.984 7.41937 106.219 7.72643C106.455 8.03349 106.572 8.39444 106.572 8.8093C106.572 9.13596 106.495 9.45445 106.342 9.76478C106.192 10.0718 105.984 10.3185 105.72 10.5047C105.458 10.6876 105.135 10.8003 104.749 10.8428C104.508 10.8689 103.925 10.8852 103 10.8918H100.555V3.70852ZM102.005 4.90409V6.56515H102.956C103.521 6.56515 103.872 6.55699 104.009 6.54065C104.258 6.51125 104.452 6.42632 104.593 6.28586C104.736 6.14213 104.808 5.9543 104.808 5.72237C104.808 5.50024 104.746 5.32058 104.622 5.18338C104.501 5.04292 104.32 4.95799 104.078 4.92859C103.934 4.91226 103.521 4.90409 102.838 4.90409H102.005ZM102.005 7.76072V9.68148H103.348C103.871 9.68148 104.202 9.66678 104.343 9.63738C104.558 9.59818 104.733 9.50345 104.867 9.35319C105.004 9.19966 105.073 8.9955 105.073 8.7407C105.073 8.52511 105.021 8.34218 104.916 8.19191C104.811 8.04165 104.66 7.93222 104.46 7.86362C104.264 7.79502 103.836 7.76072 103.177 7.76072H102.005ZM107.841 10.8918V3.76731H109.292V9.68148H112.898V10.8918H107.841ZM113.893 10.8918V3.70852H115.343V10.8918H113.893ZM121.326 8.25071L122.732 8.6966C122.516 9.48059 122.157 10.0637 121.654 10.4459C121.154 10.8248 120.519 11.0143 119.748 11.0143C118.794 11.0143 118.01 10.6892 117.396 10.0392C116.782 9.38585 116.475 8.49407 116.475 7.36383C116.475 6.16826 116.784 5.24055 117.401 4.5807C118.018 3.91758 118.83 3.58602 119.836 3.58602C120.715 3.58602 121.429 3.84571 121.977 4.3651C122.304 4.67216 122.549 5.11315 122.712 5.68807L121.277 6.03106C121.192 5.65867 121.014 5.36468 120.743 5.14908C120.475 4.93349 120.148 4.82569 119.763 4.82569C119.23 4.82569 118.797 5.01679 118.464 5.39898C118.134 5.78117 117.969 6.40019 117.969 7.25604C117.969 8.16415 118.133 8.81093 118.459 9.19639C118.786 9.58185 119.211 9.77458 119.733 9.77458C120.119 9.77458 120.45 9.65208 120.728 9.40709C121.006 9.16209 121.205 8.77664 121.326 8.25071ZM133.13 10.0147L132.297 11.0779C131.888 10.8787 131.496 10.6043 131.121 10.2548C130.83 10.5161 130.521 10.7088 130.195 10.833C129.868 10.9571 129.479 11.0192 129.028 11.0192C128.133 11.0192 127.46 10.7676 127.01 10.2646C126.66 9.87584 126.485 9.42832 126.485 8.922C126.485 8.46141 126.622 8.04818 126.897 7.68233C127.171 7.3132 127.581 6.99308 128.127 6.72195C127.882 6.43122 127.697 6.15519 127.573 5.89387C127.449 5.62927 127.387 5.37938 127.387 5.14418C127.387 4.70973 127.56 4.34223 127.906 4.04171C128.256 3.73792 128.752 3.58602 129.396 3.58602C130.016 3.58602 130.502 3.74445 130.851 4.06131C131.201 4.37817 131.375 4.76526 131.375 5.22258C131.375 5.51331 131.289 5.78934 131.116 6.05066C130.943 6.31199 130.593 6.60762 130.067 6.93754L131.067 8.25561C131.184 8.04655 131.286 7.77379 131.37 7.43733L132.615 7.72153C132.491 8.16252 132.383 8.48591 132.292 8.6917C132.2 8.89423 132.102 9.0641 131.998 9.20129C132.151 9.34502 132.349 9.50345 132.591 9.67658C132.836 9.84644 133.015 9.95914 133.13 10.0147ZM129.381 6.10946L129.754 5.82527C130.028 5.61294 130.165 5.40224 130.165 5.19318C130.165 5.01679 130.098 4.86652 129.964 4.74239C129.834 4.61826 129.656 4.5562 129.43 4.5562C129.211 4.5562 129.04 4.61173 128.916 4.72279C128.792 4.83059 128.729 4.95635 128.729 5.10008C128.729 5.26995 128.834 5.47574 129.043 5.71747L129.381 6.10946ZM128.842 7.60393C128.525 7.76399 128.288 7.95672 128.132 8.18212C127.975 8.40751 127.896 8.6378 127.896 8.873C127.896 9.17026 127.993 9.41362 128.186 9.60308C128.382 9.78928 128.643 9.88238 128.97 9.88238C129.185 9.88238 129.393 9.83991 129.592 9.75498C129.791 9.67005 130.008 9.52958 130.244 9.33359L128.842 7.60393ZM86.6051 23.8918V16.7085H88.9325C89.8145 16.7085 90.3894 16.7444 90.6573 16.8163C91.0689 16.9241 91.4135 17.1593 91.6912 17.5219C91.9688 17.8812 92.1077 18.3467 92.1077 18.9184C92.1077 19.3594 92.0276 19.7301 91.8676 20.0306C91.7075 20.3312 91.5033 20.568 91.2551 20.7411C91.0101 20.911 90.7602 21.0237 90.5054 21.0792C90.1591 21.1478 89.6577 21.1821 89.0011 21.1821H88.0555V23.8918H86.6051ZM88.0555 17.9237V19.962H88.8492C89.4209 19.962 89.8031 19.9245 89.9958 19.8493C90.1885 19.7742 90.3388 19.6566 90.4466 19.4966C90.5577 19.3365 90.6132 19.1503 90.6132 18.938C90.6132 18.6766 90.5364 18.461 90.3829 18.2912C90.2294 18.1213 90.035 18.0152 89.7998 17.9727C89.6267 17.94 89.2788 17.9237 88.7561 17.9237H88.0555ZM93.3032 23.8918V16.7085H96.3559C97.1235 16.7085 97.6805 16.7738 98.0267 16.9045C98.3763 17.0319 98.6555 17.2606 98.8646 17.5905C99.0737 17.9204 99.1782 18.2977 99.1782 18.7224C99.1782 19.2614 99.0198 19.7072 98.7029 20.06C98.3861 20.4096 97.9124 20.6301 97.2819 20.7215C97.5955 20.9045 97.8536 21.1054 98.0561 21.3242C98.2619 21.5431 98.5379 21.9318 98.8842 22.4904L99.7613 23.8918H98.0267L96.9781 22.3287C96.6058 21.7701 96.351 21.4189 96.2138 21.2752C96.0766 21.1282 95.9312 21.0286 95.7777 20.9763C95.6241 20.9208 95.3808 20.893 95.0476 20.893H94.7536V23.8918H93.3032ZM94.7536 19.7464H95.8267C96.5225 19.7464 96.9569 19.717 97.13 19.6582C97.3032 19.5995 97.4387 19.4982 97.5367 19.3545C97.6347 19.2107 97.6837 19.0311 97.6837 18.8155C97.6837 18.5737 97.6184 18.3794 97.4877 18.2324C97.3603 18.0821 97.179 17.9874 96.9439 17.9482C96.8263 17.9319 96.4735 17.9237 95.8855 17.9237H94.7536V19.7464ZM100.506 23.8918V16.7085H101.956V23.8918H100.506ZM105.176 23.8918L102.608 16.7085H104.181L105.999 22.0249L107.758 16.7085H109.296L106.724 23.8918H105.176ZM115.769 23.8918H114.191L113.564 22.2601H110.693L110.1 23.8918H108.561L111.359 16.7085H112.893L115.769 23.8918ZM113.099 21.0498L112.109 18.3843L111.139 21.0498H113.099ZM117.416 23.8918V17.9237H115.284V16.7085H120.993V17.9237H118.866V23.8918H117.416ZM121.933 23.8918V16.7085H127.259V17.9237H123.384V19.5162H126.99V20.7264H123.384V22.6815H127.397V23.8918H121.933ZM86.6002 29.7085H89.251C89.8488 29.7085 90.3045 29.7542 90.6181 29.8457C91.0395 29.9698 91.4004 30.1903 91.701 30.5072C92.0015 30.8241 92.2302 31.2128 92.387 31.6734C92.5437 32.1307 92.6221 32.6958 92.6221 33.3687C92.6221 33.96 92.5486 34.4696 92.4017 34.8975C92.222 35.4202 91.9656 35.8432 91.6324 36.1666C91.3808 36.4116 91.0411 36.6027 90.6132 36.7399C90.2931 36.8411 89.8651 36.8918 89.3294 36.8918H86.6002V29.7085ZM88.0506 30.9237V35.6815H89.1334C89.5385 35.6815 89.8308 35.6586 90.0105 35.6129C90.2457 35.5541 90.4401 35.4545 90.5936 35.314C90.7504 35.1735 90.8778 34.9432 90.9758 34.6231C91.0738 34.2997 91.1228 33.8604 91.1228 33.305C91.1228 32.7497 91.0738 32.3234 90.9758 32.0262C90.8778 31.7289 90.7406 31.497 90.5642 31.3304C90.3878 31.1638 90.164 31.0511 89.8929 30.9923C89.6904 30.9466 89.2935 30.9237 88.7022 30.9237H88.0506ZM93.8569 36.8918V29.7085H99.1831V30.9237H95.3073V32.5162H98.9136V33.7264H95.3073V35.6815H99.3203V36.8918H93.8569ZM102.383 36.8918L99.8152 29.7085H101.388L103.206 35.0249L104.965 29.7085H106.504L103.931 36.8918H102.383ZM107.243 36.8918V29.7085H112.57V30.9237H108.694V32.5162H112.3V33.7264H108.694V35.6815H112.707V36.8918H107.243ZM113.976 36.8918V29.7673H115.426V35.6815H119.033V36.8918H113.976ZM119.777 33.3442C119.777 32.6125 119.887 31.9984 120.106 31.5019C120.269 31.136 120.491 30.8077 120.772 30.517C121.056 30.2263 121.367 30.0107 121.703 29.8702C122.151 29.6807 122.667 29.586 123.251 29.586C124.31 29.586 125.156 29.9143 125.79 30.5709C126.426 31.2275 126.745 32.1405 126.745 33.3099C126.745 34.4696 126.43 35.3777 125.799 36.0343C125.169 36.6876 124.326 37.0143 123.271 37.0143C122.203 37.0143 121.353 36.6892 120.723 36.0392C120.093 35.3859 119.777 34.4875 119.777 33.3442ZM121.272 33.2952C121.272 34.1086 121.46 34.726 121.835 35.1474C122.211 35.5655 122.688 35.7746 123.266 35.7746C123.844 35.7746 124.318 35.5672 124.687 35.1523C125.059 34.7342 125.246 34.1086 125.246 33.2756C125.246 32.4525 125.064 31.8383 124.702 31.4333C124.342 31.0282 123.864 30.8257 123.266 30.8257C122.668 30.8257 122.186 31.0315 121.821 31.4431C121.455 31.8514 121.272 32.4688 121.272 33.2952ZM127.882 36.8918V29.7085H130.209C131.091 29.7085 131.666 29.7444 131.934 29.8163C132.346 29.9241 132.69 30.1593 132.968 30.5219C133.246 30.8812 133.384 31.3467 133.384 31.9184C133.384 32.3594 133.304 32.7301 133.144 33.0306C132.984 33.3312 132.78 33.568 132.532 33.7411C132.287 33.911 132.037 34.0237 131.782 34.0792C131.436 34.1478 130.934 34.1821 130.278 34.1821H129.332V36.8918H127.882ZM129.332 30.9237V32.962H130.126C130.698 32.962 131.08 32.9245 131.272 32.8493C131.465 32.7742 131.615 32.6566 131.723 32.4966C131.834 32.3365 131.89 32.1503 131.89 31.938C131.89 31.6766 131.813 31.461 131.66 31.2912C131.506 31.1213 131.312 31.0152 131.076 30.9727C130.903 30.94 130.555 30.9237 130.033 30.9237H129.332ZM134.555 36.8918V29.7085H136.726L138.029 34.6084L139.318 29.7085H141.494V36.8918H140.146V31.2373L138.72 36.8918H137.324L135.903 31.2373V36.8918H134.555ZM142.934 36.8918V29.7085H148.26V30.9237H144.385V32.5162H147.991V33.7264H144.385V35.6815H148.398V36.8918H142.934ZM149.642 36.8918V29.7085H151.053L153.993 34.5055V29.7085H155.341V36.8918H153.885L150.99 32.2075V36.8918H149.642ZM158.496 36.8918V30.9237H156.365V29.7085H162.073V30.9237H159.947V36.8918H158.496ZM91.2012 47.2507L92.6074 47.6966C92.3919 48.4806 92.0325 49.0637 91.5295 49.4459C91.0297 49.8248 90.3943 50.0143 89.6234 50.0143C88.6696 50.0143 87.8856 49.6892 87.2715 49.0392C86.6573 48.3859 86.3503 47.4941 86.3503 46.3638C86.3503 45.1683 86.659 44.2405 87.2764 43.5807C87.8938 42.9176 88.7055 42.586 89.7116 42.586C90.5903 42.586 91.3041 42.8457 91.8529 43.3651C92.1795 43.6722 92.4245 44.1132 92.5878 44.6881L91.1522 45.0311C91.0672 44.6587 90.8892 44.3647 90.6181 44.1491C90.3502 43.9335 90.0236 43.8257 89.6381 43.8257C89.1057 43.8257 88.6728 44.0168 88.3396 44.399C88.0097 44.7812 87.8448 45.4002 87.8448 46.256C87.8448 47.1641 88.0081 47.8109 88.3347 48.1964C88.6614 48.5819 89.0861 48.7746 89.6087 48.7746C89.9942 48.7746 90.3257 48.6521 90.6034 48.4071C90.8811 48.1621 91.0803 47.7766 91.2012 47.2507ZM93.8569 49.8918V42.7085H99.1831V43.9237H95.3073V45.5162H98.9136V46.7264H95.3073V48.6815H99.3203V49.8918H93.8569ZM100.565 49.8918V42.7085H101.976L104.916 47.5055V42.7085H106.263V49.8918H104.808L101.912 45.2075V49.8918H100.565ZM109.419 49.8918V43.9237H107.288V42.7085H112.996V43.9237H110.869V49.8918H109.419ZM113.942 49.8918V42.7085H116.994C117.762 42.7085 118.319 42.7738 118.665 42.9045C119.015 43.0319 119.294 43.2606 119.503 43.5905C119.712 43.9204 119.817 44.2977 119.817 44.7224C119.817 45.2614 119.658 45.7072 119.341 46.06C119.024 46.4096 118.551 46.6301 117.92 46.7215C118.234 46.9045 118.492 47.1054 118.694 47.3242C118.9 47.5431 119.176 47.9318 119.523 48.4904L120.4 49.8918H118.665L117.616 48.3287C117.244 47.7701 116.989 47.4189 116.852 47.2752C116.715 47.1282 116.57 47.0286 116.416 46.9763C116.262 46.9208 116.019 46.893 115.686 46.893H115.392V49.8918H113.942ZM115.392 45.7464H116.465C117.161 45.7464 117.595 45.717 117.768 45.6582C117.942 45.5995 118.077 45.4982 118.175 45.3545C118.273 45.2107 118.322 45.0311 118.322 44.8155C118.322 44.5737 118.257 44.3794 118.126 44.2324C117.999 44.0821 117.817 43.9874 117.582 43.9482C117.465 43.9319 117.112 43.9237 116.524 43.9237H115.392V45.7464ZM121.189 49.8918V42.7085H126.515V43.9237H122.639V45.5162H126.245V46.7264H122.639V48.6815H126.652V49.8918H121.189Z" fill="#106E3B"/>
<path fill-rule="evenodd" clip-rule="evenodd" d="M77.0447 39.3687V45.8311C50.2622 41.5799 53.463 24.0339 58.4372 15.7611L3.24487 29.3226C29.9088 48.8512 63.3323 51.0511 77.0447 49.6971V51.3996C25.3691 53.3468 2.57486 31.8189 0.283523 29.6548C0.162552 29.5406 0.0987282 29.4803 0.0908203 29.4803C28.7278 2.73569 63.3255 0.0444137 77.0447 2.04185V17.2917C77.0447 17.2917 77.0446 17.2917 77.0446 17.2917C70.9482 17.2917 66.0061 22.2338 66.0061 28.3302C66.0061 34.4266 70.9482 39.3687 77.0446 39.3687C77.0446 39.3687 77.0447 39.3687 77.0447 39.3687Z" fill="black"/>
</svg>
