<svg width="275" height="397" viewBox="0 0 275 397" fill="none" xmlns="http://www.w3.org/2000/svg">
<g clip-path="url(#clip0_206_850)">
<mask id="mask0_206_850" style="mask-type:luminance" maskUnits="userSpaceOnUse" x="-92" y="-26" width="367" height="459">
<path d="M-91.0003 -25.4429H274.837V432.457H-91.0003V-25.4429Z" fill="white"/>
</mask>
<g mask="url(#mask0_206_850)">
<path d="M22.3607 12.025V100.788L95.7824 124.315V211.221L187.431 240.575V314.611L270.852 339.509V452.513L-153.266 489.023L-207.004 255.288L-300.252 145.455L-380.388 31.0232L22.3607 12.025Z" fill="#37B24A"/>
<path d="M270.852 339.509L45.33 267.258L-131.896 358.493L82.5122 427.172L270.852 339.509Z" fill="#6558A4"/>
<path d="M187.431 240.575L-38.0907 168.339L-215.317 259.573L-0.908493 328.253L187.431 240.575Z" fill="#292D6B"/>
<path d="M95.7822 124.315L-129.725 52.0641L-306.966 143.299L-92.5431 211.992L95.7822 124.315Z" fill="#EA2128"/>
<path d="M22.3606 12.025L-203.161 -60.2111L-380.388 31.0232L-165.979 99.7026L22.3606 12.025Z" fill="#F05B2A"/>
</g>
</g>
<defs>
<clipPath id="clip0_206_850">
<rect width="275" height="397" fill="white" transform="matrix(-1 0 0 1 275 0)"/>
</clipPath>
</defs>
</svg>
