<svg width="226" height="199" viewBox="0 0 226 199" fill="none" xmlns="http://www.w3.org/2000/svg">
<path d="M70.2031 232.5C63.8094 232.5 58.3359 230.223 53.7828 225.67C49.2297 221.117 46.9531 215.644 46.9531 209.25C46.9531 202.856 49.2297 197.383 53.7828 192.83C58.3359 188.277 63.8094 186 70.2031 186H73.1094C74.0781 186 75.0469 186.194 76.0156 186.581L117.284 145.312C116.316 141.244 116.364 137.223 117.43 133.252C118.495 129.28 120.481 125.841 123.388 122.934C126.294 120.028 129.733 118.042 133.705 116.977C137.677 115.911 141.697 115.863 145.766 116.831L187.034 75.5625C186.647 74.5938 186.453 73.625 186.453 72.6562V69.75C186.453 63.3563 188.73 57.8828 193.283 53.3297C197.836 48.7766 203.309 46.5 209.703 46.5C216.097 46.5 221.57 48.7766 226.123 53.3297C230.677 57.8828 232.953 63.3563 232.953 69.75C232.953 76.1438 230.677 81.6172 226.123 86.1703C221.57 90.7234 216.097 93 209.703 93L203.891 92.4188L162.622 133.397C163.591 137.466 163.542 141.534 162.477 145.603C161.411 149.672 159.425 153.159 156.519 156.066C153.419 159.166 149.883 161.248 145.911 162.314C141.939 163.38 137.919 163.331 133.85 162.169L98.1031 197.625H120.191C122.322 194.137 125.131 191.328 128.619 189.197C132.106 187.066 135.884 186 139.953 186C144.216 186 148.139 187.017 151.723 189.052C155.308 191.086 158.166 193.944 160.297 197.625H189.359C191.491 193.944 194.348 191.086 197.933 189.052C201.517 187.017 205.441 186 209.703 186C216.097 186 221.57 188.277 226.123 192.83C230.677 197.383 232.953 202.856 232.953 209.25C232.953 215.644 230.677 221.117 226.123 225.67C221.57 230.223 216.097 232.5 209.703 232.5C205.441 232.5 201.517 231.434 197.933 229.303C194.348 227.172 191.491 224.363 189.359 220.875H160.297C158.166 224.556 155.308 227.414 151.723 229.448C148.139 231.483 144.216 232.5 139.953 232.5C135.884 232.5 132.106 231.434 128.619 229.303C125.131 227.172 122.322 224.363 120.191 220.875H89.9656C87.8344 224.363 85.025 227.172 81.5375 229.303C78.05 231.434 74.2719 232.5 70.2031 232.5ZM70.2031 162.75C63.8094 162.75 58.3359 160.473 53.7828 155.92C49.2297 151.367 46.9531 145.894 46.9531 139.5C46.9531 133.106 49.2297 127.633 53.7828 123.08C58.3359 118.527 63.8094 116.25 70.2031 116.25C76.5969 116.25 82.0703 118.527 86.6234 123.08C91.1766 127.633 93.4531 133.106 93.4531 139.5C93.4531 145.894 91.1766 151.367 86.6234 155.92C82.0703 160.473 76.5969 162.75 70.2031 162.75ZM70.2031 93C63.8094 93 58.3359 90.7234 53.7828 86.1703C49.2297 81.6172 46.9531 76.1438 46.9531 69.75C46.9531 63.3563 49.2297 57.8828 53.7828 53.3297C58.3359 48.7766 63.8094 46.5 70.2031 46.5C76.5969 46.5 82.0703 48.7766 86.6234 53.3297C91.1766 57.8828 93.4531 63.3563 93.4531 69.75C93.4531 76.1438 91.1766 81.6172 86.6234 86.1703C82.0703 90.7234 76.5969 93 70.2031 93ZM139.953 93C133.559 93 128.086 90.7234 123.533 86.1703C118.98 81.6172 116.703 76.1438 116.703 69.75C116.703 63.3563 118.98 57.8828 123.533 53.3297C128.086 48.7766 133.559 46.5 139.953 46.5C146.347 46.5 151.82 48.7766 156.373 53.3297C160.927 57.8828 163.203 63.3563 163.203 69.75C163.203 76.1438 160.927 81.6172 156.373 86.1703C151.82 90.7234 146.347 93 139.953 93ZM209.703 162.75C203.309 162.75 197.836 160.473 193.283 155.92C188.73 151.367 186.453 145.894 186.453 139.5C186.453 133.106 188.73 127.633 193.283 123.08C197.836 118.527 203.309 116.25 209.703 116.25C216.097 116.25 221.57 118.527 226.123 123.08C230.677 127.633 232.953 133.106 232.953 139.5C232.953 145.894 230.677 151.367 226.123 155.92C221.57 160.473 216.097 162.75 209.703 162.75Z" fill="#37B34A"/>
</svg>
