<svg width="387" height="29" viewBox="0 0 387 29" fill="none" xmlns="http://www.w3.org/2000/svg">
<g clip-path="url(#clip0_435_45850)">
<path d="M84.7698 25.7378C84.6176 25.7378 84.6176 25.7378 84.4654 25.7378C84.0088 25.7378 83.5522 25.7378 83.2478 25.2812C82.9434 24.9768 82.9434 23.7592 82.9434 23.1504C82.9434 22.9982 82.9434 22.9982 82.9434 22.846V8.08273C82.9434 7.77833 82.9434 7.47396 82.9434 7.01736C82.9434 6.40857 82.9434 5.79973 83.2478 5.64753C83.4 5.49533 83.7044 5.34316 84.161 5.34316C84.3132 5.34316 84.6176 5.34316 84.7698 5.34316C85.0742 5.34316 85.8352 5.19096 85.8352 4.58217C85.8352 4.42997 85.683 4.12554 85.5308 4.12554C85.3786 3.97334 85.2264 3.97339 85.0742 3.97339C84.922 3.97339 84.6176 3.97339 84.6176 3.97339H80.6604C80.2038 3.97339 79.7472 3.97337 79.595 4.58217L72.4417 21.1718L66.0494 5.19095C65.8972 4.73435 65.745 3.97339 64.984 3.97339H60.8746C60.7224 3.97339 60.5702 3.97339 60.418 3.97339C60.2658 3.97339 60.1136 3.97334 59.9614 4.12554C59.8092 4.27774 59.657 4.42997 59.657 4.58217C59.657 5.19096 60.2658 5.34316 60.7224 5.34316C61.4834 5.34316 61.94 5.34318 62.2444 5.49538C62.3966 5.64757 62.5488 5.79973 62.5488 6.40852C62.5488 6.56072 62.5488 6.86512 62.5488 7.16952L61.4834 22.9982C61.3312 24.8246 61.3312 25.4334 59.5048 25.5856C59.2004 25.5856 58.4395 25.5856 58.4395 26.1944C58.4395 26.3466 58.5916 26.651 58.7438 26.651C58.896 26.8032 59.0483 26.8032 59.2005 26.8032C60.2658 26.8032 61.3312 26.651 62.3966 26.651C63.462 26.651 64.5274 26.8032 65.5928 26.8032C65.745 26.8032 65.8972 26.8032 66.2016 26.8032C66.3538 26.8032 66.6582 26.4988 66.6582 26.1944C66.6582 25.5856 65.8972 25.5856 65.5928 25.5856H65.4406C63.462 25.5856 63.1576 24.5202 63.1576 22.9982C63.1576 22.5416 63.1576 22.2372 63.1576 21.7806L64.223 7.16952L71.2241 25.129C71.2241 25.2812 71.3763 25.89 71.9851 25.89C72.4417 25.89 72.5939 25.2812 72.7461 25.129L80.6604 6.71294V22.6938C80.6604 22.846 80.6604 22.9982 80.6604 23.1504C80.6604 23.9114 80.5082 24.6724 80.2038 25.129C79.8994 25.4334 79.1384 25.5856 78.6818 25.5856C78.6818 25.5856 78.5296 25.5856 78.3774 25.5856C78.073 25.5856 77.312 25.5856 77.312 26.1944C77.312 26.8032 77.9208 26.8032 78.2252 26.8032C79.595 26.8032 81.117 26.651 82.4868 26.651C83.7044 26.651 84.7698 26.8032 85.9874 26.8032C86.2918 26.8032 86.9006 26.8032 86.9006 26.1944C85.8352 25.89 85.2264 25.7378 84.7698 25.7378Z" fill="#0067B1"/>
<path d="M102.729 24.3682C102.425 24.3682 102.272 24.6726 101.968 24.8248C101.664 24.977 101.511 25.2814 101.055 25.2814C100.598 25.2814 100.294 24.977 100.142 24.3682C99.9894 23.7594 99.9894 23.1506 99.9894 22.694V22.5418V14.0187C99.9894 13.7143 99.9894 13.5621 99.9894 13.2577C99.9894 12.4967 99.8372 11.7358 99.2284 11.2792C98.3152 10.5182 96.9454 10.366 95.88 10.366C93.597 10.366 91.0097 11.2792 89.3355 12.9534C88.5745 13.5622 87.8135 14.6275 87.8135 15.6929C87.8135 15.8451 87.8135 15.9974 87.9657 16.1496C88.1179 16.3017 88.2701 16.3017 88.4223 16.3017C88.8789 16.3017 89.6399 15.9973 90.0965 15.8451C90.7053 15.5407 91.0097 14.9319 91.1619 14.4753C91.9228 12.649 92.9882 11.5836 95.119 11.5836C97.2498 11.5836 97.2498 12.8012 97.2498 14.6276V16.1496C97.2498 17.5193 97.2498 17.3671 96.0322 17.9759L93.2926 19.1934C91.314 20.1066 87.9657 21.6286 87.8135 24.3682C87.8135 26.3468 89.6399 27.4122 91.314 27.4122C92.9882 27.4122 94.358 26.6512 95.2712 26.0424C95.7278 25.738 96.1844 25.2814 96.4888 25.1292C96.641 24.977 96.7932 24.8248 96.7932 24.8248H96.9454C97.2498 25.1292 97.5542 27.26 99.3806 27.26C100.446 27.26 101.359 26.6512 101.968 26.1946C102.272 25.8902 102.881 25.4336 102.881 24.977C103.186 24.5204 103.033 24.3682 102.729 24.3682ZM93.597 20.1066L96.7932 18.4325C96.9454 18.4325 97.0976 18.2803 97.0976 18.2803C97.0976 18.2803 97.0976 18.2803 97.0976 18.4325C97.0976 18.5847 97.0976 18.7369 97.0976 18.7369C97.0976 18.8891 97.0976 19.0413 97.0976 19.1934V21.3242C97.0976 22.5418 97.0976 22.9984 96.1844 23.9116C95.4234 24.6726 94.2058 25.2814 92.9882 25.2814C91.7706 25.2814 90.7053 24.6726 90.7053 23.3028C90.8575 21.7808 92.2272 20.8676 93.597 20.1066Z" fill="#0067B1"/>
<path d="M118.558 23.6072C118.254 23.6072 117.949 24.0638 117.949 24.0638C116.884 25.1292 115.514 25.5858 113.992 25.5858C110.035 25.5858 107.447 21.933 107.447 18.4325C107.447 16.3017 108.36 14.171 110.035 12.8012C110.948 12.0402 112.318 11.4314 113.535 11.4314C114.905 11.4314 115.666 12.3445 116.427 13.2577C117.036 14.1709 117.492 15.2363 118.253 15.2363C118.862 15.2363 118.862 14.4753 118.862 14.0187C118.862 13.7143 118.862 13.4099 118.862 13.2577C118.862 13.1055 118.862 12.8011 118.862 12.4967C118.862 12.1923 118.862 11.7358 118.406 11.5836C117.188 10.8226 115.362 10.366 113.84 10.366C108.969 10.366 104.403 14.171 104.403 19.1934C104.403 23.6072 108.056 27.4122 112.622 27.4122C114.601 27.4122 116.427 26.8034 117.949 25.5858C118.253 25.2814 119.014 24.6726 119.014 24.216C119.014 23.9116 118.862 23.6072 118.558 23.6072Z" fill="#0067B1"/>
<path d="M141.388 25.7376C139.866 25.7376 139.257 23.759 138.648 22.3892L131.343 4.42969C131.19 4.2775 131.191 3.6687 130.734 3.6687C130.125 3.6687 130.125 4.2775 129.973 4.58189L123.124 22.5414C122.82 23.1502 122.211 24.8244 121.754 25.281C121.297 25.7376 120.689 25.7376 120.08 25.7376C119.776 25.7376 119.015 25.7376 118.862 26.3464C118.862 26.803 119.319 26.9552 119.623 26.9552C119.928 26.9552 120.08 26.9552 120.232 26.9552C121.297 26.9552 122.211 26.803 123.276 26.803C124.189 26.803 125.255 26.9552 126.32 26.9552C126.472 26.9552 126.777 26.9552 126.929 26.9552C127.081 26.9552 127.385 26.6508 127.385 26.3464C127.385 25.7376 126.777 25.7376 126.472 25.7376H126.32C125.863 25.7376 125.407 25.7376 124.798 25.5854C124.341 25.4332 124.037 25.1288 124.037 24.6722C124.037 24.0634 124.341 23.3024 124.494 22.6936L125.559 19.954C126.168 18.5842 125.711 18.7364 127.081 18.5842H131.951C132.865 18.5842 133.169 18.5842 133.321 18.7364C133.473 18.8886 133.626 19.3452 134.082 20.2584L135.3 22.998C135.452 23.4546 135.756 24.2156 135.756 24.6722C135.756 25.1288 135.452 25.281 135.148 25.4332C134.691 25.5854 134.234 25.5854 133.626 25.5854C133.321 25.5854 132.408 25.5854 132.408 26.3464C132.408 26.803 133.017 26.803 133.169 26.803C134.539 26.803 135.909 26.6508 137.126 26.6508C138.648 26.6508 140.322 26.803 141.844 26.803C141.997 26.803 142.605 26.803 142.605 26.3464C142.605 25.7376 141.692 25.7376 141.388 25.7376ZM129.668 9.45222C129.821 9.60442 129.973 10.2132 130.125 10.3654L132.56 16.4534C132.56 16.6056 132.865 17.0622 132.865 17.2144C132.865 17.2144 132.865 17.2144 132.712 17.3666C132.56 17.3666 132.408 17.3666 132.256 17.3666C132.104 17.3666 131.951 17.3666 131.799 17.3666H127.69C127.538 17.3666 127.385 17.3666 127.081 17.3666C126.929 17.3666 126.777 17.3666 126.624 17.3666H126.472C126.472 17.3666 126.472 17.0622 126.624 17.0622L129.06 10.5176C129.06 10.3654 129.212 10.2132 129.212 9.90885C129.516 9.75665 129.668 9.60442 129.668 9.45222Z" fill="#0067B1"/>
<path d="M153.869 10.5176C152.499 10.5176 151.586 11.2786 150.825 12.0396C150.52 12.344 150.216 12.8006 149.912 13.105C149.759 13.2572 149.759 13.4094 149.607 13.4094C149.607 13.4094 149.607 13.2572 149.607 13.105C149.607 12.9528 149.607 12.9528 149.607 12.8006V10.9742V10.822C149.607 10.6698 149.607 10.5176 149.607 10.3654C149.607 10.2132 149.303 10.061 149.151 10.2132C148.694 10.2132 148.542 10.5176 148.39 10.6698C147.781 11.2786 146.259 12.1918 145.498 12.4962C145.193 12.6484 144.585 12.6484 144.585 13.2572C144.585 13.5616 144.889 13.7138 145.193 13.7138H145.65C145.954 13.7138 146.411 13.7138 146.563 13.866C146.868 14.0182 146.868 15.0836 146.868 15.6924C146.868 15.8446 146.868 15.8446 146.868 15.9968V22.6934C146.868 23.15 146.868 23.4546 146.868 23.759C146.868 24.8244 146.715 25.2808 145.346 25.433C145.193 25.433 144.889 25.433 144.737 25.433C144.432 25.433 144.28 25.7376 144.28 26.042C144.28 26.4986 144.737 26.4984 144.889 26.4984C145.954 26.4984 147.172 26.3462 148.237 26.3462C149.303 26.3462 150.52 26.4984 151.586 26.4984C151.738 26.4984 151.89 26.4984 152.042 26.3462C152.195 26.194 152.195 26.0418 152.195 25.8896C152.195 25.1286 151.281 25.281 150.977 25.281C149.607 25.1288 149.455 24.5198 149.455 23.6066C149.455 23.3022 149.455 22.8456 149.455 22.5412V16.91C149.455 16.7578 149.455 16.7577 149.455 16.6055C149.455 15.388 149.455 14.4748 150.216 13.4094C150.673 12.8006 151.281 12.1918 151.89 12.1918C152.651 12.0396 152.803 13.5616 154.173 13.5616C155.086 13.5616 155.847 12.9528 155.847 11.8874C156 11.2786 154.934 10.5176 153.869 10.5176Z" fill="#0067B1"/>
<path d="M166.501 24.3684C166.196 24.3684 165.892 24.6728 165.435 24.9772C164.979 25.2816 164.522 25.586 163.913 25.586C163 25.586 162.544 24.9772 162.239 24.2162C161.935 23.4552 161.935 22.3898 161.935 21.6288V21.4766V12.3447C161.935 11.7359 162.087 11.7359 162.391 11.7359C162.544 11.7359 162.848 11.7359 163 11.7359H164.979C165.283 11.7359 165.435 11.7359 165.588 11.7359C165.74 11.7359 165.892 11.7359 166.044 11.5837C166.196 11.4315 166.196 11.2793 166.196 10.9749C166.196 10.8227 166.196 10.6705 166.196 10.5183C166.196 10.3661 165.892 10.2139 165.74 10.2139H162.239C161.783 10.2139 161.935 10.0617 161.783 9.60512V7.01778C161.783 6.86558 161.783 6.40894 161.326 6.40894C161.022 6.40894 160.869 6.71336 160.869 6.86556C160.108 8.53975 159.043 9.45293 157.521 10.3661C157.369 10.5183 157.064 10.6705 157.064 10.9749C157.064 11.4315 157.521 11.4315 157.825 11.4315C157.978 11.4315 158.282 11.4315 158.282 11.4315C158.434 11.4315 158.586 11.4315 158.739 11.4315C159.043 11.4315 159.043 11.2793 159.043 11.8881V21.02C159.043 21.3244 159.043 21.781 159.043 22.0854C159.043 23.303 159.043 24.6728 159.804 25.586C160.413 26.347 161.478 26.8036 162.544 26.8036C163.913 26.8036 165.131 26.1948 166.044 25.4338C166.349 25.2816 166.805 24.825 166.805 24.3684C166.957 24.5206 166.805 24.3684 166.501 24.3684Z" fill="#0067B1"/>
<path d="M186.134 25.8896C184.764 25.7374 184.764 25.1286 184.612 24.2154C184.612 23.911 184.612 23.4544 184.612 23.15V17.5187C184.612 17.3665 184.612 17.3665 184.612 17.2143C184.612 15.5401 184.612 13.7138 183.547 12.344C182.634 10.9742 180.807 10.5176 179.285 10.5176C176.85 10.5176 175.48 11.2786 173.958 12.8005L173.654 12.9527C173.654 12.9527 173.654 12.9527 173.502 12.8005V2.29884V2.14663C173.502 1.99443 173.502 1.84225 173.502 1.69005C173.502 1.53785 173.197 1.53784 173.045 1.53784C172.741 1.53784 172.436 1.84222 172.132 1.99442C171.371 2.60321 170.001 2.90763 168.936 3.05983C168.631 3.05983 168.327 3.21203 168.327 3.66862C168.327 4.12522 168.783 4.2774 169.088 4.2774C169.24 4.2774 169.392 4.2774 169.392 4.2774C170.458 4.2774 170.61 4.88621 170.61 5.9516C170.61 6.256 170.61 6.71261 170.61 7.01701V23.3022C170.61 23.7588 170.61 24.0632 170.61 24.3676C170.61 25.2808 170.458 25.8896 169.088 26.0418C168.936 26.0418 168.631 26.0418 168.479 26.0418C168.175 26.0418 168.022 26.3462 168.022 26.6506C168.022 27.1072 168.479 27.1072 168.631 27.1072C169.697 27.1072 170.914 26.955 171.98 26.955C173.045 26.955 174.263 27.1072 175.328 27.1072C175.48 27.1072 175.632 27.1072 175.785 26.955C175.937 26.8028 175.937 26.6506 175.937 26.4984C175.937 25.7374 175.024 25.8896 174.719 25.8896C173.349 25.7374 173.349 25.1286 173.197 24.2154C173.197 23.911 173.197 23.4544 173.197 23.15V16.6055C173.197 15.0835 173.197 14.4747 174.263 13.4093C175.176 12.4961 176.393 11.8873 177.611 11.8873C179.133 11.8873 180.198 12.4961 180.807 13.4093C181.416 14.3225 181.416 15.6923 181.416 16.9099V23.15C181.416 23.6066 181.416 23.911 181.416 24.2154C181.416 25.1286 181.264 25.7374 179.894 25.8896C179.742 25.8896 179.437 25.8896 179.285 25.8896C178.981 25.8896 178.829 26.194 178.829 26.4984C178.829 26.955 179.285 26.955 179.437 26.955C180.503 26.955 181.72 26.8028 182.786 26.8028C183.851 26.8028 184.917 26.955 186.134 26.955C186.286 26.955 186.439 26.955 186.591 26.8028C186.743 26.6506 186.743 26.4984 186.743 26.3462C187.2 25.7374 186.439 25.8896 186.134 25.8896Z" fill="#0067B1"/>
<path d="M205.312 24.5197H204.855C204.703 24.5197 204.703 24.5197 204.551 24.5197C203.637 24.5197 203.637 24.0631 203.485 23.3021C203.485 22.9977 203.485 22.6933 203.485 22.3889V11.8873C203.485 11.7351 203.485 11.5829 203.485 11.4307C203.485 11.2785 203.485 11.1262 203.333 10.974C203.181 10.8218 203.029 10.8219 202.876 10.8219H198.767C198.615 10.8219 198.615 10.8219 198.463 10.8219C198.31 10.8219 198.31 10.8218 198.158 10.974C198.006 11.1262 198.006 11.1263 198.006 11.2785C198.006 12.0395 198.919 11.8873 199.224 11.8873C200.593 11.8873 200.593 12.496 200.593 13.4092C200.593 13.7136 200.593 14.1703 200.593 14.6269V21.4757C200.593 21.7801 200.593 22.0845 200.593 22.2367C200.593 22.8455 200.593 23.4543 199.985 23.9109C199.071 24.9763 197.854 25.4329 196.332 25.4329C194.962 25.4329 193.592 24.9763 192.831 23.9109C192.222 22.9977 192.222 21.1713 192.222 19.9537V12.1917C192.222 12.0395 192.222 11.8873 192.222 11.5829C192.222 11.4307 192.222 11.1262 192.07 10.974C191.918 10.8218 191.766 10.6697 191.461 10.6697H187.657C187.504 10.6697 187.504 10.6697 187.352 10.6697C187.2 10.6697 187.2 10.6697 187.048 10.8219C186.896 10.9741 186.896 10.9741 186.896 11.1263C186.896 11.8873 187.809 11.735 187.961 11.735C189.331 11.735 189.331 12.3438 189.483 13.257C189.483 13.5614 189.483 14.0181 189.483 14.4746V19.9537C189.483 20.1059 189.483 20.4103 189.483 20.5625C189.483 22.0845 189.483 23.7587 190.548 25.1285C191.614 26.4983 193.136 27.2593 194.962 27.2593C196.636 27.2593 197.854 26.6505 198.767 26.0417C199.68 25.4329 200.289 24.8241 200.441 24.8241C200.441 24.8241 200.441 24.8241 200.593 24.9763C200.593 25.1285 200.593 25.2807 200.593 25.4329C200.593 25.7373 200.593 26.0417 200.593 26.0417V26.9549C200.593 27.1071 200.593 27.1071 200.593 27.2593C200.593 27.4115 200.746 27.4115 200.898 27.4115C201.202 27.4115 201.354 27.2593 201.354 27.1071C202.42 26.3461 203.637 25.8895 204.855 25.5851C205.007 25.4329 205.616 25.4329 205.768 24.9763C205.92 24.6719 205.464 24.5197 205.312 24.5197Z" fill="#0067B1"/>
<path d="M217.184 10.5176C215.814 10.5176 214.901 11.2786 214.14 12.0396C213.836 12.344 213.531 12.8006 213.227 13.105C213.075 13.2572 213.075 13.4094 212.922 13.4094C212.922 13.4094 212.922 13.2572 212.922 13.105C212.922 12.9528 212.922 12.9528 212.922 12.8006V10.9742V10.822C212.922 10.6698 212.922 10.5176 212.922 10.3654C212.922 10.2132 212.618 10.061 212.466 10.2132C212.009 10.2132 211.857 10.5176 211.705 10.6698C211.096 11.2786 209.573 12.1918 208.812 12.4962C208.508 12.6484 207.899 12.6484 207.899 13.2572C207.899 13.5616 208.204 13.7138 208.508 13.7138H208.965C209.269 13.7138 209.726 13.7138 209.878 13.866C210.183 14.0182 210.183 15.0836 210.183 15.6924C210.183 15.8446 210.183 15.8446 210.183 15.9968V22.6934C210.183 23.15 210.183 23.4546 210.183 23.759C210.183 24.6722 210.031 25.2808 208.66 25.433C208.508 25.433 208.204 25.433 208.051 25.433C207.747 25.433 207.595 25.7376 207.595 26.042C207.595 26.4986 208.051 26.4984 208.204 26.4984C209.269 26.4984 210.487 26.3462 211.553 26.3462C212.618 26.3462 213.836 26.4984 214.901 26.4984C215.053 26.4984 215.205 26.4984 215.358 26.3462C215.51 26.194 215.51 26.0418 215.51 25.8896C215.51 25.1286 214.597 25.281 214.292 25.281C212.922 25.1288 212.77 24.5198 212.77 23.6066C212.77 23.3022 212.77 22.8456 212.77 22.5412V16.91C212.77 16.7578 212.77 16.7577 212.77 16.6055C212.77 15.388 212.77 14.4748 213.531 13.4094C213.988 12.8006 214.597 12.1918 215.205 12.1918C215.966 12.0396 216.119 13.5616 217.488 13.5616C218.402 13.5616 219.163 12.9528 219.163 11.8874C219.467 11.2786 218.402 10.5176 217.184 10.5176Z" fill="#0067B1"/>
<path d="M240.775 9.75738C241.232 9.75738 241.384 9.14857 241.384 8.84417C241.384 8.53977 241.384 8.38759 241.384 8.23539V5.80019C241.384 5.64799 241.384 5.49581 241.384 5.34361C241.384 5.19141 241.384 4.88703 241.232 4.73483C241.079 4.58263 240.927 4.43042 240.623 4.43042C236.666 4.43042 232.708 4.58262 228.903 4.58262C227.838 4.58262 226.773 4.43042 225.707 4.43042C225.403 4.43042 224.946 4.5826 224.946 5.0392C224.946 5.64799 225.707 5.64798 226.012 5.64798C228.142 5.64798 227.99 5.95241 228.142 7.62659C228.142 7.77879 228.142 8.08319 228.142 8.23539V22.9987C228.142 23.3031 228.142 23.6075 228.142 23.7597C228.142 25.4339 228.142 25.7383 226.012 25.7383H225.859C225.555 25.7383 224.946 25.7383 224.946 26.3471C224.946 26.6515 225.098 26.8037 225.251 26.8037C225.403 26.9559 225.555 26.9559 225.707 26.9559C227.077 26.9559 228.295 26.8037 229.664 26.8037C230.882 26.8037 232.252 26.9559 233.469 26.9559C233.622 26.9559 233.774 26.9559 233.926 26.8037C234.078 26.6515 234.23 26.4993 234.23 26.3471C234.23 25.7383 233.622 25.7383 233.317 25.7383H233.165C231.034 25.5861 231.186 25.4339 231.034 23.6075C231.034 23.4553 231.034 23.1509 231.034 22.9987V16.3019C231.034 15.6931 231.186 15.5409 231.339 15.3887C231.491 15.2365 231.947 15.2365 232.556 15.2365C233.622 15.2365 235.296 15.2365 236.666 15.5409C237.274 15.6931 237.579 16.6064 237.731 17.6718C237.731 17.824 237.883 18.4327 238.34 18.4327C238.492 18.4327 238.644 18.4328 238.796 18.2806C238.949 18.1284 238.949 17.9762 238.949 17.6718C238.949 16.4542 238.796 15.3887 238.796 14.3233C238.796 13.4101 238.949 12.1926 238.949 11.2794C238.949 10.8228 238.644 10.6706 238.34 10.6706C237.883 10.6706 237.731 11.2794 237.731 11.4316C237.579 12.497 237.274 13.7145 236.666 13.7145C235.752 13.8667 234.535 13.8668 233.622 13.8668C233.165 13.8668 232.861 13.8668 232.556 13.8668C231.186 13.8668 231.034 14.019 231.034 12.3448V7.32218C231.034 7.16998 231.034 7.17001 231.034 7.01781C231.034 6.56122 231.034 5.95239 231.339 5.80019C231.795 5.64799 233.622 5.49583 234.23 5.49583C237.274 5.49583 239.253 5.4958 240.166 8.84417C240.166 8.99637 240.166 9.60518 240.775 9.75738Z" fill="#00853F"/>
<path d="M248.385 10.366C246.102 10.366 243.971 11.127 242.449 12.8012C241.079 14.3231 240.166 16.4539 240.166 18.7369C240.166 23.7594 243.971 27.4122 248.385 27.4122C252.799 27.4122 256.603 23.7594 256.603 18.7369C256.603 16.4539 255.69 14.0187 254.016 12.4967C252.494 10.9747 250.363 10.366 248.385 10.366ZM248.385 11.4314C252.038 11.4314 253.864 15.3885 253.864 19.0413C253.864 22.3896 251.885 26.3468 248.537 26.3468C246.711 26.3468 245.341 25.2814 244.428 23.7594C243.514 22.2374 242.906 20.2588 242.906 18.5847C242.906 14.9319 244.884 11.4314 248.385 11.4314Z" fill="#00853F"/>
<path d="M274.714 24.5197H274.258C274.106 24.5197 274.106 24.5197 273.953 24.5197C273.04 24.5197 273.04 24.0631 273.04 23.3021C273.04 22.9977 273.04 22.6933 273.04 22.3889V11.8873C273.04 11.7351 273.04 11.5829 273.04 11.4307C273.04 11.2785 273.04 11.1262 272.888 10.974C272.736 10.8218 272.584 10.8219 272.431 10.8219H268.474C268.474 10.8219 268.322 10.8219 268.17 10.8219C268.018 10.8219 268.018 10.8218 267.865 10.974C267.713 11.1262 267.713 11.1263 267.713 11.2785C267.713 12.0395 268.626 11.8873 268.779 11.8873C269.996 11.8873 270.148 12.496 270.148 13.4092C270.148 13.7136 270.148 14.1703 270.148 14.6269V21.4757C270.148 21.7801 270.148 22.0845 270.148 22.2367C270.148 22.8455 270.148 23.4543 269.54 23.9109C268.626 24.9763 267.409 25.4329 266.039 25.4329C264.821 25.4329 263.452 24.9763 262.691 23.9109C262.082 22.9977 262.082 21.1713 262.082 19.9537V12.1917C262.082 12.0395 262.082 11.8873 262.082 11.5829C262.082 11.4307 262.082 11.1262 261.93 10.974C261.777 10.8218 261.625 10.6697 261.321 10.6697H257.516C257.364 10.6697 257.364 10.6697 257.211 10.6697C257.059 10.6697 257.059 10.6697 256.907 10.8219C256.755 10.9741 256.755 10.9741 256.755 11.1263C256.755 11.8873 257.516 11.735 257.82 11.735C259.19 11.735 259.19 12.3438 259.19 13.257C259.19 13.5614 259.19 14.0181 259.19 14.4746V19.9537C259.19 20.1059 259.19 20.4103 259.19 20.5625C259.19 22.0845 259.19 23.7587 260.255 25.1285C261.321 26.4983 262.691 27.2593 264.517 27.2593C266.191 27.2593 267.409 26.6505 268.17 26.0417C269.083 25.4329 269.692 24.8241 269.692 24.8241C269.692 24.8241 269.692 24.8241 269.844 24.9763C269.844 25.1285 269.844 25.2807 269.844 25.4329C269.844 25.7373 269.844 26.0417 269.844 26.0417V26.9549C269.844 27.1071 269.844 27.1071 269.844 27.2593C269.844 27.4115 269.996 27.4115 270.148 27.4115C270.453 27.4115 270.605 27.1071 270.605 27.1071C271.67 26.3461 272.888 25.8895 273.953 25.5851C274.106 25.4329 274.714 25.4329 274.867 24.9763C275.323 24.6719 274.867 24.5197 274.714 24.5197Z" fill="#00853F"/>
<path d="M294.957 25.8902C294.652 25.8902 294.5 25.8902 294.348 25.738C292.978 25.5858 292.978 25.1292 292.978 24.0638C292.978 23.7594 292.978 23.3028 292.978 22.9984V17.3671C292.978 17.2149 292.978 16.9105 292.978 16.7583C292.978 15.2363 292.978 13.7144 291.913 12.3446C290.847 10.9748 289.478 10.366 287.651 10.366C285.977 10.366 284.76 11.127 283.846 11.888C283.085 12.4967 282.477 12.9533 282.324 13.2577V11.127V10.9747C282.324 10.8225 282.324 10.366 281.868 10.366C281.411 10.366 281.259 10.6704 281.107 10.8226C280.65 11.4314 279.128 12.3446 278.367 12.6489C278.063 12.8011 277.454 12.8011 277.454 13.4099C277.454 13.7143 277.758 13.8666 278.063 13.8666H278.519C278.824 13.8666 279.28 13.8665 279.433 14.0187C279.737 14.1709 279.737 15.2363 279.737 15.8451C279.737 15.9973 279.737 15.9974 279.737 16.1496V22.8462C279.737 23.3028 279.737 23.6072 279.737 23.9116C279.737 24.977 279.585 25.4336 278.367 25.5858C278.215 25.5858 277.911 25.5858 277.758 25.5858C277.454 25.5858 277.302 25.8902 277.302 26.1946C277.302 26.6512 277.758 26.8034 277.911 26.8034C278.976 26.8034 280.041 26.6512 281.107 26.6512C282.172 26.6512 283.238 26.8034 284.303 26.8034C284.455 26.8034 284.607 26.8034 284.76 26.6512C284.912 26.499 284.912 26.3468 284.912 26.1946C284.912 25.8902 284.607 25.738 284.455 25.5858C284.151 25.5858 283.999 25.5858 283.846 25.4336C282.477 25.2814 282.477 24.8248 282.477 23.7594C282.477 23.455 282.477 22.9984 282.477 22.694V16.6061C282.477 15.2363 282.629 14.4753 283.542 13.4099C284.455 12.4967 285.52 11.888 286.89 11.888C288.108 11.888 289.325 12.4967 289.934 13.4099C290.543 14.3231 290.543 15.693 290.543 16.9105V22.5418C290.543 22.9984 290.543 23.3028 290.543 23.6072C290.543 24.6726 290.391 25.1292 289.173 25.2814C289.021 25.2814 288.717 25.2814 288.564 25.2814C288.26 25.2814 288.108 25.5858 288.108 25.8902C288.108 26.3468 288.564 26.499 288.717 26.499C289.782 26.499 290.847 26.3468 291.913 26.3468C292.978 26.3468 294.044 26.499 295.109 26.499C295.261 26.499 295.413 26.499 295.566 26.3468C295.718 26.1946 295.718 26.0424 295.718 25.8902C295.413 26.1946 295.109 25.8902 294.957 25.8902Z" fill="#00853F"/>
<path d="M313.83 23.7595C313.526 23.7595 313.373 24.0637 313.069 24.3681C312.765 24.6725 312.46 24.9769 312.308 24.9769C312.156 24.9769 312.156 24.9769 312.004 24.6725C312.004 24.5203 311.851 24.2159 311.851 23.9115C311.851 23.6071 311.851 23.4549 311.851 23.3027V2.14715V1.99495C311.851 1.84275 311.851 1.69057 311.851 1.53837C311.851 1.38617 311.547 1.23396 311.395 1.38616C311.09 1.38616 310.786 1.69054 310.634 1.84274C309.873 2.45153 308.503 2.75595 307.59 2.90814C307.438 2.90814 306.981 3.06034 306.981 3.51694C306.981 3.97354 307.438 4.12572 307.742 4.12572C307.894 4.12572 308.046 4.12572 308.046 4.12572C309.112 4.12572 309.264 4.73453 309.264 5.79992C309.264 6.10432 309.264 6.56093 309.264 6.86533V10.2137C309.264 10.3659 309.264 10.5181 309.264 10.8225C309.264 10.9747 309.264 11.1269 309.264 11.2791C309.264 11.4313 309.264 11.4313 309.264 11.4313C309.112 11.4313 308.807 11.2791 308.655 11.2791C307.438 10.8225 306.22 10.5181 304.85 10.5181C304.698 10.5181 304.698 10.5181 304.546 10.5181C302.415 10.5181 300.284 11.5835 298.762 13.1055C297.24 14.6275 296.327 16.7582 296.327 19.0412C296.327 23.4549 299.523 27.5644 303.937 27.5644C305.459 27.5644 306.677 26.9555 307.59 26.3467C308.503 25.7379 309.264 25.1291 309.264 25.1291C309.416 25.2813 309.416 25.8902 309.416 26.0424C309.416 26.1946 309.416 26.3467 309.416 26.6511C309.416 26.9555 309.568 27.2599 309.873 27.2599C310.177 27.2599 310.482 26.9555 310.634 26.9555L313.373 25.8901C313.678 25.7379 314.134 25.5857 314.134 25.1291V24.6725V24.5205C314.134 24.0639 314.134 23.7595 313.83 23.7595ZM304.85 25.4335C301.198 25.4335 299.067 21.7807 299.067 18.2802C299.067 14.7797 301.198 11.5835 304.85 11.2791C305.002 11.2791 305.002 11.2791 305.155 11.2791C306.22 11.2791 307.59 11.7357 308.199 12.3445C308.96 13.1055 308.96 14.0187 308.96 15.084C308.96 15.2362 308.96 15.3884 308.96 15.5406V22.0851C308.96 22.3895 308.96 22.5417 308.96 22.6939C308.96 23.1505 308.96 23.4551 308.655 23.7595C307.894 24.9771 306.372 25.4335 304.85 25.4335Z" fill="#00853F"/>
<path d="M330.267 24.3681C329.963 24.3681 329.811 24.6725 329.506 24.8247C329.354 24.9769 329.05 25.2813 328.593 25.2813C328.137 25.2813 327.831 24.9769 327.679 24.3681C327.526 23.7593 327.526 23.1505 327.526 22.6939V22.5417V14.0186C327.526 13.7142 327.526 13.562 327.526 13.2576C327.526 12.4966 327.374 11.8878 326.765 11.2791C325.852 10.5181 324.635 10.3658 323.569 10.3658C321.286 10.3658 319.005 11.2791 317.331 12.9532C316.722 13.562 315.809 14.6274 315.809 15.6928C315.809 15.845 315.807 15.9972 315.959 16.1494C316.111 16.3016 316.265 16.3016 316.417 16.3016C316.874 16.3016 317.635 15.9972 317.939 15.845C318.548 15.5406 318.699 14.9318 319.003 14.4752C319.764 12.6488 320.83 11.5835 322.808 11.5835C324.787 11.5835 324.788 12.8011 324.788 14.6274V16.1494C324.788 17.5191 324.787 17.3669 323.569 17.9757L320.983 19.3455C319.157 20.2587 315.809 21.7807 315.809 24.5203C315.809 26.4989 317.481 27.5643 319.155 27.5643C320.677 27.5643 322.047 26.8033 322.96 26.1945C323.417 25.8901 323.875 25.4335 324.18 25.2813C324.332 25.1291 324.482 24.9769 324.482 24.9769C324.482 24.9769 324.635 24.9769 324.635 24.8247C324.939 25.1291 325.243 27.2599 326.918 27.2599C327.831 27.2599 328.745 26.6511 329.506 26.1945C329.811 25.8901 330.418 25.4335 330.418 24.9769C330.723 24.5203 330.572 24.3681 330.267 24.3681ZM325.091 18.8889C325.091 19.0411 325.091 19.1933 325.091 19.3455V21.4763C325.091 22.6939 325.091 23.1505 324.33 24.0637C323.569 24.8247 322.352 25.4335 321.286 25.4335C320.069 25.4335 319.155 24.8247 319.155 23.4549C319.155 21.7807 320.375 21.0197 321.744 20.2587L324.941 18.5845C325.093 18.5845 325.243 18.4323 325.243 18.4323C325.243 18.4323 325.243 18.4323 325.243 18.5845C325.091 18.5845 325.091 18.7367 325.091 18.8889Z" fill="#00853F"/>
<path d="M340.313 24.3684C340.008 24.3684 339.856 24.6728 339.4 24.9772C338.943 25.2816 338.486 25.586 337.878 25.586C336.965 25.586 336.508 24.9772 336.203 24.2162C335.899 23.4552 335.899 22.3898 335.899 21.6288V21.4766V12.3447C335.899 11.7359 336.051 11.7359 336.356 11.7359C336.508 11.7359 336.66 11.7359 336.964 11.7359H338.943C339.247 11.7359 339.4 11.7359 339.552 11.7359C339.704 11.7359 339.856 11.7359 340.008 11.5837C340.161 11.4315 340.161 11.2793 340.161 10.9749C340.161 10.8227 340.161 10.6705 340.161 10.5183C340.161 10.3661 339.856 10.2139 339.704 10.2139H336.356C335.899 10.2139 336.051 10.2139 336.051 9.60512V7.01778C336.051 6.86558 336.051 6.40894 335.595 6.40894C335.29 6.40894 335.138 6.71336 335.138 6.86556C334.377 8.53975 333.464 9.45293 331.942 10.3661C331.79 10.5183 331.485 10.6705 331.485 11.1271C331.485 11.5837 331.942 11.5837 332.246 11.5837C332.399 11.5837 332.703 11.5837 332.703 11.5837C332.855 11.5837 333.007 11.5837 333.007 11.5837C333.312 11.5837 333.312 11.4315 333.312 12.0403V21.1722C333.312 21.4766 333.312 21.9332 333.312 22.2376C333.312 23.4552 333.464 24.825 334.073 25.7382C334.682 26.4992 335.747 26.9558 336.66 26.9558C337.878 26.9558 339.095 26.347 340.008 25.586C340.313 25.4338 340.769 24.9772 340.769 24.5206C340.769 24.5206 340.617 24.3684 340.313 24.3684Z" fill="#00853F"/>
<path d="M345.792 7.62601C346.858 7.62601 347.467 6.71279 347.467 5.6474C347.467 4.73421 346.858 3.82104 345.792 3.82104C344.727 3.82104 344.118 4.73422 344.118 5.79961C344.118 6.71281 344.727 7.62601 345.792 7.62601Z" fill="#00853F"/>
<path d="M349.14 25.8901C348.988 25.8901 348.683 25.8901 348.531 25.7379C347.161 25.5857 347.161 25.1291 347.161 24.0637C347.161 23.7593 347.161 23.3027 347.161 22.9983V10.9746V10.8225C347.161 10.6703 347.161 10.2136 346.705 10.2136C346.248 10.2136 346.096 10.5181 345.944 10.6703C345.487 11.279 343.965 12.1922 343.204 12.4966C342.9 12.6488 342.291 12.6488 342.291 13.2576C342.291 13.562 342.595 13.7142 342.9 13.7142H343.356C343.661 13.7142 344.117 13.7142 344.269 13.8664C344.574 14.0186 344.574 15.2362 344.574 15.845C344.574 15.9972 344.574 15.9972 344.574 16.1494V22.8461C344.574 23.3027 344.574 23.6071 344.574 23.9115C344.574 24.9769 344.422 25.4335 343.204 25.5857C343.052 25.5857 342.747 25.5857 342.595 25.5857C342.443 25.5857 342.139 25.8901 342.139 26.1945C342.139 26.6511 342.595 26.8033 342.747 26.8033C343.813 26.8033 344.878 26.6511 346.096 26.6511C347.161 26.6511 348.227 26.8033 349.292 26.8033C349.444 26.8033 349.596 26.8033 349.749 26.6511C349.901 26.4989 349.901 26.3467 349.901 26.1945C349.749 26.1945 349.444 25.8901 349.14 25.8901Z" fill="#00853F"/>
<path d="M358.881 10.3658C356.598 10.3658 354.467 11.1269 352.945 12.801C351.575 14.323 350.662 16.4538 350.662 18.7367C350.662 23.7593 354.467 27.4121 358.881 27.4121C363.295 27.4121 367.1 23.7593 367.1 18.7367C367.1 16.4538 366.186 14.0186 364.512 12.4966C362.838 10.9746 360.859 10.3658 358.881 10.3658ZM364.208 18.8889C364.208 22.2373 362.229 26.1945 358.881 26.1945C357.054 26.1945 355.685 25.1291 354.771 23.6071C353.858 22.0851 353.25 20.1065 353.25 18.4323C353.25 14.7796 355.228 11.2791 358.729 11.2791C362.381 11.4313 364.208 15.3884 364.208 18.8889Z" fill="#00853F"/>
<path d="M386.125 25.8902C385.973 25.8902 385.668 25.8902 385.516 25.738C384.146 25.5858 384.146 25.1292 384.146 24.0638C384.146 23.7594 384.146 23.3028 384.146 22.9984V17.3671C384.146 17.2149 384.146 16.9105 384.146 16.7583C384.146 15.2363 384.146 13.7144 383.081 12.3446C382.015 10.9748 380.646 10.366 378.819 10.366C377.145 10.366 375.927 11.127 375.014 11.888C374.253 12.4967 373.644 12.9533 373.492 13.2577V11.127V10.9747C373.492 10.8225 373.492 10.366 373.036 10.366C372.579 10.366 372.427 10.6704 372.275 10.8226C371.818 11.4314 370.296 12.3446 369.535 12.6489C369.231 12.8011 368.622 12.8011 368.622 13.4099C368.622 13.7143 368.926 13.8666 369.231 13.8666H369.687C369.992 13.8666 370.448 13.8665 370.601 14.0187C370.905 14.1709 370.905 15.2363 370.905 15.8451C370.905 15.9973 370.905 15.9974 370.905 16.1496V22.8462C370.905 23.3028 370.905 23.6072 370.905 23.9116C370.905 24.977 370.753 25.4336 369.535 25.5858C369.383 25.5858 369.079 25.5858 368.926 25.5858C368.622 25.5858 368.47 25.8902 368.47 26.1946C368.47 26.6512 368.926 26.8034 369.079 26.8034C370.144 26.8034 371.209 26.6512 372.275 26.6512C373.34 26.6512 374.405 26.8034 375.471 26.8034C375.623 26.8034 375.775 26.8034 375.927 26.6512C376.08 26.499 376.08 26.3468 376.08 26.1946C376.08 25.8902 375.775 25.738 375.623 25.5858C375.471 25.5858 375.166 25.5858 375.014 25.4336C373.644 25.2814 373.644 24.8248 373.644 23.7594C373.644 23.455 373.644 22.9984 373.644 22.694V16.6061C373.644 15.2363 373.797 14.4753 374.71 13.4099C375.623 12.4967 376.688 11.888 378.058 11.888C379.428 11.888 380.493 12.4967 381.102 13.4099C381.711 14.3231 381.711 15.693 381.711 16.9105V22.5418C381.711 22.9984 381.711 23.3028 381.711 23.6072C381.711 24.6726 381.559 25.1292 380.341 25.2814C380.189 25.2814 379.885 25.2814 379.732 25.2814C379.58 25.2814 379.276 25.5858 379.276 25.8902C379.276 26.3468 379.732 26.499 379.885 26.499C380.95 26.499 382.015 26.3468 383.081 26.3468C384.146 26.3468 385.212 26.499 386.277 26.499C386.429 26.499 386.581 26.499 386.734 26.3468C386.886 26.1946 386.886 26.0424 386.886 25.8902C386.581 26.1946 386.277 25.8902 386.125 25.8902Z" fill="#00853F"/>
</g>
<defs>
<clipPath id="clip0_435_45850">
<rect width="386" height="28" fill="white" transform="translate(0.496094 0.891785)"/>
</clipPath>
</defs>
</svg>
