<svg width="245" height="245" viewBox="0 0 245 245" fill="none" xmlns="http://www.w3.org/2000/svg">
<path d="M157.368 197.003C168.283 197.003 177.561 193.183 185.201 185.542C192.842 177.902 196.662 168.624 196.662 157.708C196.662 146.793 192.842 137.515 185.201 129.875C177.561 122.234 168.283 118.414 157.368 118.414C146.452 118.414 137.175 122.234 129.534 129.875C121.893 137.515 118.073 146.793 118.073 157.708C118.073 168.624 121.893 177.902 129.534 185.542C137.175 193.183 146.452 197.003 157.368 197.003ZM157.368 223.2C139.248 223.2 123.803 216.814 111.033 204.043C98.2619 191.273 91.8765 175.828 91.8765 157.708C91.8765 139.589 98.2619 124.144 111.033 111.373C123.803 98.6027 139.248 92.2173 157.368 92.2173C175.487 92.2173 190.932 98.6027 203.703 111.373C216.473 124.144 222.859 139.589 222.859 157.708C222.859 175.828 216.473 191.273 203.703 204.043C190.932 216.814 175.487 223.2 157.368 223.2ZM65.68 170.807H13.2871V144.61H65.68V170.807ZM301.448 170.807H249.055V144.61H301.448V170.807ZM144.269 66.0208V13.6279H170.466V66.0208H144.269ZM144.269 301.789V249.396H170.466V301.789H144.269ZM84.0175 102.041L50.9445 70.2778L69.6095 50.9579L101.045 83.7035L84.0175 102.041ZM245.126 264.459L213.363 231.386L230.718 213.376L263.791 245.139L245.126 264.459ZM213.035 84.3584L244.798 51.2853L264.118 69.9503L231.373 101.386L213.035 84.3584ZM50.6171 245.467L83.6901 213.703L101.7 231.059L69.9369 264.132L50.6171 245.467Z" fill="#37B34A"/>
</svg>
