<svg width="892" height="4" viewBox="0 0 892 4" fill="none" xmlns="http://www.w3.org/2000/svg">
<g clip-path="url(#clip0_669_1136)">
<g clip-path="url(#clip1_669_1136)">
<rect width="31.75" height="8.0493" transform="matrix(-1 0 0 1 920.75 -3)" fill="#6558A5"/>
<rect width="31.75" height="8.0493" transform="matrix(-1 0 0 1 889 -3)" fill="#F05A2B"/>
<rect width="31.75" height="8.0493" transform="matrix(-1 0 0 1 857.25 -3)" fill="#EB1F28"/>
<rect width="31.75" height="8.0493" transform="matrix(-1 0 0 1 825.5 -3)" fill="#282D6B"/>
<rect width="31.75" height="8.0493" transform="matrix(-1 0 0 1 793.75 -3)" fill="#6558A5"/>
<rect width="31.75" height="8.0493" transform="matrix(-1 0 0 1 762 -3)" fill="#F05A2B"/>
<rect width="31.75" height="8.0493" transform="matrix(-1 0 0 1 730.25 -3)" fill="#EB1F28"/>
<rect width="31.75" height="8.0493" transform="matrix(-1 0 0 1 698.5 -3)" fill="#282D6B"/>
<rect width="31.75" height="8.0493" transform="matrix(-1 0 0 1 666.75 -3)" fill="#6558A5"/>
<rect width="31.75" height="8.0493" transform="matrix(-1 0 0 1 635 -3)" fill="#F05A2B"/>
<rect width="31.75" height="8.0493" transform="matrix(-1 0 0 1 603.25 -3)" fill="#EB1F28"/>
<rect width="31.75" height="8.0493" transform="matrix(-1 0 0 1 571.5 -3)" fill="#282D6B"/>
<rect width="31.75" height="8.0493" transform="matrix(-1 0 0 1 539.75 -3)" fill="#6558A5"/>
<rect width="31.75" height="8.0493" transform="matrix(-1 0 0 1 508 -3)" fill="#F05A2B"/>
<rect width="31.75" height="8.0493" transform="matrix(-1 0 0 1 476.25 -3)" fill="#EB1F28"/>
<rect width="31.75" height="8.0493" transform="matrix(-1 0 0 1 444.5 -3)" fill="#282D6B"/>
<rect width="31.75" height="8.0493" transform="matrix(-1 0 0 1 412.75 -3)" fill="#6558A5"/>
<rect width="31.75" height="8.0493" transform="matrix(-1 0 0 1 381 -3)" fill="#F05A2B"/>
<rect width="31.75" height="8.0493" transform="matrix(-1 0 0 1 349.25 -3)" fill="#EB1F28"/>
<rect width="31.75" height="8.0493" transform="matrix(-1 0 0 1 317.5 -3)" fill="#282D6B"/>
<rect width="31.75" height="8.0493" transform="matrix(-1 0 0 1 285.75 -3)" fill="#6558A5"/>
<rect width="31.75" height="8.0493" transform="matrix(-1 0 0 1 254 -3)" fill="#F05A2B"/>
<rect width="31.75" height="8.0493" transform="matrix(-1 0 0 1 222.25 -3)" fill="#EB1F28"/>
<rect width="31.75" height="8.0493" transform="matrix(-1 0 0 1 190.5 -3)" fill="#282D6B"/>
<rect width="31.75" height="8.0493" transform="matrix(-1 0 0 1 158.75 -3)" fill="#6558A5"/>
<rect width="31.75" height="8.0493" transform="matrix(-1 0 0 1 127 -3)" fill="#F05A2B"/>
<rect width="31.75" height="8.0493" transform="matrix(-1 0 0 1 95.25 -3)" fill="#EB1F28"/>
<rect width="31.75" height="8.0493" transform="matrix(-1 0 0 1 63.5 -3)" fill="#282D6B"/>
<rect width="31.75" height="8.0493" transform="matrix(-1 0 0 1 31.75 -3)" fill="#6558A5"/>
</g>
</g>
<defs>
<clipPath id="clip0_669_1136">
<rect width="1143" height="5" fill="white" transform="matrix(-1 0 0 1 1143 0)"/>
</clipPath>
<clipPath id="clip1_669_1136">
<rect width="1143" height="8.0493" fill="white" transform="matrix(-1 0 0 1 1143 -3)"/>
</clipPath>
</defs>
</svg>
