<svg width="78" height="54" viewBox="0 0 78 54" fill="none" xmlns="http://www.w3.org/2000/svg">
<path d="M16.4198 25.2441C21.4413 24.6778 25.3439 20.4129 25.3439 15.2357C25.3439 10.0585 21.4413 5.79354 16.4198 5.22725V5.16342H5.21729V25.3079H16.4198V25.2441Z" fill="#EDCC18"/>
<path d="M63.5082 48.6196C68.5296 48.0533 72.4322 43.7884 72.4322 38.6112C72.4322 33.434 68.5296 29.1691 63.5082 28.6028V28.5389H52.3057V48.6834H63.5082V48.6196Z" fill="#EDCC18"/>
<path d="M28.8252 5.16342V25.3079H49.0151V19.86H35.4708V17.9596H49.0151V12.5117H35.4708V10.6113H49.0151V5.16342H28.8252Z" fill="#EDCC18"/>
<path d="M35.4708 37.9298V48.6833H28.8252V28.5388H35.4708V28.5431L35.4807 28.5331L42.3695 35.4281V28.5388H49.0151V48.6833H42.3695V44.8347L35.4708 37.9298Z" fill="#EDCC18"/>
<path d="M5.1543 28.5389V48.6834H25.3442V43.2356H11.7999V41.3351H25.3442V35.8872H11.7999V33.9868H25.3442V28.5389H5.1543Z" fill="#EDCC18"/>
<path d="M72.4323 5.13199H52.3374L59.1728 25.3082H65.8184L72.4323 5.13199Z" fill="#EDCC18"/>
<rect x="0.850314" y="0.823611" width="75.8861" height="52.1363" stroke="#EDCC18" stroke-width="1.51899"/>
</svg>
