<svg width="178" height="49" viewBox="0 0 178 49" fill="none" xmlns="http://www.w3.org/2000/svg">
<path fill-rule="evenodd" clip-rule="evenodd" d="M0 0H5.42902L34.4969 29.0679V47.8433H0V0ZM5.42901 7.80422V42.5273H29.0679L5.42901 7.80422Z" fill="white"/>
<path d="M36.876 26.7648V30.9283L54.1245 48.1767H62.4513L42.8237 28.5492L55.314 16.0589L64.8304 25.5753H55.314V31.523H74.3468V26.7648L57.0983 9.51639H54.1245L36.876 26.7648Z" fill="white"/>
<path d="M68.9938 9.51639H60.667L98.7325 48.1767H102.896V14.8694H121.929V8.92162H100.517L97.543 11.8955V38.6603L68.9938 9.51639Z" fill="white"/>
<path d="M136.203 28.5492C136.761 24.1455 134.642 18.9178 132.894 16.4476C131.777 14.8694 126.092 10.1112 121.897 8.9604L118.955 14.8694C121.897 14.8694 126.288 17.8432 127.678 19.8067C129.433 22.286 130.85 26.7648 130.256 28.5492H136.203Z" fill="white"/>
<path d="M144.53 29.7387C144.53 32.2221 144.004 34.6799 142.984 36.9646C141.964 39.2493 140.47 41.3139 138.592 43.0344C136.715 44.7549 134.493 46.096 132.059 46.9771C129.624 47.8582 127.029 48.2613 124.427 48.162C121.826 48.0627 119.272 47.4632 116.92 46.3994C114.567 45.3356 112.464 43.8295 110.737 41.9714C109.009 40.1133 107.693 37.9415 106.868 35.5863C106.042 33.2312 105.724 30.7412 105.932 28.2657L111.568 28.6966C111.421 30.4479 111.646 32.2096 112.23 33.8758C112.814 35.5421 113.745 37.0786 114.967 38.3932C116.189 39.7078 117.677 40.7733 119.342 41.526C121.006 42.2786 122.813 42.7027 124.653 42.773C126.494 42.8432 128.33 42.5581 130.052 41.9347C131.774 41.3113 133.347 40.3625 134.675 39.1453C136.003 37.928 137.06 36.4673 137.782 34.8509C138.504 33.2345 138.876 31.4957 138.876 29.7387H144.53Z" fill="white"/>
<path d="M177.838 27.9544C177.838 25.471 177.312 23.0133 176.291 20.7285C175.271 18.4438 173.777 16.3793 171.9 14.6587C170.022 12.9382 167.8 11.5971 165.366 10.716C162.932 9.83486 160.336 9.43185 157.735 9.53113C155.133 9.6304 152.58 10.2299 150.227 11.2937C147.874 12.3575 145.771 13.8636 144.044 15.7217C142.317 17.5798 141.001 19.7516 140.175 22.1068C139.349 24.462 139.031 26.952 139.239 29.4274L144.875 28.9965C144.728 27.2452 144.953 25.4835 145.537 23.8173C146.122 22.151 147.053 20.6145 148.275 19.2999C149.497 17.9853 150.985 16.9198 152.649 16.1671C154.314 15.4145 156.12 14.9904 157.961 14.9201C159.801 14.8499 161.638 15.135 163.36 15.7584C165.082 16.3818 166.654 17.3306 167.982 18.5479C169.311 19.7651 170.367 21.2258 171.089 22.8422C171.811 24.4586 172.183 26.1974 172.183 27.9544H177.838Z" fill="white"/>
<path d="M138.582 8.92162H144.53V48.1767L138.582 48.1767V8.92162Z" fill="white"/>
<path d="M172.176 27.3596H177.838V48.1144H172.176V27.3596Z" fill="white"/>
</svg>
