<svg width="194" height="194" viewBox="0 0 194 194" fill="none" xmlns="http://www.w3.org/2000/svg">
<g clip-path="url(#clip0_384_36135)">
<path d="M35.4811 136.626C33.7667 129.056 34.2044 121.819 36.794 114.917C39.3837 108.016 43.762 102.136 49.9291 97.2794C45.8766 95.4287 42.4474 92.7016 39.6416 89.0979C36.8358 85.4942 34.9484 81.5528 33.9793 77.2736C32.0786 68.8799 33.3655 61.1918 37.8401 54.2092C42.3147 47.2267 48.6666 42.8037 56.8957 40.9402C63.9728 39.3376 70.8722 40.1975 77.5938 43.5201C84.3155 46.8426 88.8891 51.9492 91.3146 58.8399C94.0845 55.7904 97.1812 53.2291 100.605 51.1562C104.028 49.0832 107.797 47.5809 111.912 46.6492C118.495 45.1584 125.049 45.4477 131.574 47.5173C138.098 49.5868 143.86 53.2563 148.86 58.526C146.084 60.0198 143.167 61.8481 140.11 64.0111C137.053 66.1741 134.495 68.4403 132.436 70.8098C130.104 68.9156 127.513 67.599 124.664 66.86C121.815 66.121 118.991 66.0683 116.193 66.7019C106.977 68.789 102.156 73.8602 101.731 81.9155C101.306 89.9708 101.199 97.5215 101.41 104.568L94.5722 111.047C88.8956 110.429 84.0567 109.881 80.0554 109.403C76.0541 108.925 72.5722 109.022 69.6097 109.692C64.6723 110.811 60.7526 113.558 57.8508 117.935C54.949 122.312 54.0757 127.052 55.2311 132.154C56.6473 138.408 60.6192 142.959 67.1468 145.806C73.6744 148.654 81.0217 150.537 89.1888 151.456C97.356 152.375 105.466 152.658 113.518 152.305C121.57 151.952 127.747 151.722 132.047 151.613L131.224 172.043C123.482 172.239 114.596 172.348 104.566 172.37C94.5354 172.392 84.762 171.448 75.2456 169.536C65.7291 167.625 57.291 164.173 49.9311 159.178C42.5712 154.183 37.7546 146.666 35.4811 136.626ZM53.7293 72.8013C54.3629 75.5992 55.8403 77.7302 58.1616 79.1943C60.4829 80.6584 63.0425 81.0737 65.8404 80.4401C68.6384 79.8065 70.7694 78.329 72.2335 76.0077C73.6976 73.6864 74.1128 71.1268 73.4792 68.3289C72.8457 65.531 71.3682 63.4 69.0469 61.9359C66.7256 60.4718 64.166 60.0565 61.3681 60.6901C58.5702 61.3237 56.4392 62.8012 54.9751 65.1225C53.511 67.4438 53.0957 70.0034 53.7293 72.8013ZM108.612 134.081C113.646 124.982 118.385 116.685 122.83 109.19C127.275 101.695 131.751 95.1015 136.259 89.4092C140.766 83.7169 145.506 79.0533 150.479 75.4183C155.452 71.7833 160.901 69.295 166.826 67.9533C177.524 65.5308 187.364 67.1522 196.347 72.8177C205.329 78.4831 211.032 86.6648 213.454 97.3627C213.603 98.021 213.693 98.6063 213.722 99.1187C213.752 99.6311 213.841 100.216 213.99 100.875C215.487 99.8438 217.021 98.9773 218.592 98.2755C220.163 97.5736 221.854 97.0177 223.665 96.6077C231.894 94.7443 239.541 96.0405 246.606 100.496C253.671 104.952 258.135 111.295 259.998 119.524C261.862 127.753 260.565 135.4 256.109 142.465C251.653 149.53 245.311 153.994 237.082 155.858C235.271 156.268 233.547 156.485 231.909 156.51C230.271 156.535 228.554 156.404 226.76 156.119L227.542 159.575C229.778 169.45 228.511 178.561 223.74 186.909C218.969 195.256 212.042 201.15 202.959 204.591C202.781 201.517 202.274 198.128 201.435 194.425C200.596 190.722 199.659 187.344 198.621 184.291C202.146 182.282 204.798 179.476 206.577 175.872C208.356 172.268 208.761 168.327 207.792 164.047C206.488 158.287 203.785 154.184 199.685 151.739C195.584 149.293 189.691 146 182.005 141.857L179.936 132.723C185.38 125.434 189.343 119.822 191.825 115.886C194.308 111.95 194.934 107.266 193.704 101.835C192.512 96.5684 189.796 92.5982 185.557 89.9247C181.318 87.2511 176.565 86.5106 171.299 87.7032C167.513 88.5604 163.847 90.5154 160.299 93.5681C156.751 96.6207 153.152 100.593 149.502 105.486C145.852 110.379 142.1 116.159 138.246 122.828C134.393 129.497 130.268 136.876 125.871 144.966L108.612 134.081ZM220.498 128.469C221.132 131.267 222.609 133.398 224.931 134.862C227.252 136.326 229.812 136.741 232.609 136.108C235.407 135.474 237.538 133.997 239.002 131.675C240.467 129.354 240.882 126.794 240.248 123.996C239.615 121.199 238.137 119.068 235.816 117.603C233.495 116.139 230.935 115.724 228.137 116.358C225.339 116.991 223.208 118.469 221.744 120.79C220.28 123.111 219.865 125.671 220.498 128.469ZM49.9604 200.567C49.1404 196.946 48.8236 193.255 49.0098 189.492C49.196 185.73 49.9862 181.961 51.3804 178.185C54.0945 179.474 57.2201 180.669 60.7571 181.771C64.2942 182.874 67.5471 183.867 70.5158 184.752C69.7737 186.823 69.3607 188.82 69.277 190.742C69.1932 192.665 69.3563 194.531 69.7662 196.341C70.9589 201.608 73.8074 205.591 78.3118 208.291C82.8162 210.991 87.6195 211.764 92.7215 210.608C95.8486 209.9 99.0735 208.478 102.396 206.341C105.719 204.205 109.808 201.635 114.665 198.632L123.627 201.533C126.509 208.148 129.868 214.957 133.703 221.961C137.539 228.965 144.065 231.423 153.281 229.336C159.865 227.845 164.088 224.337 165.951 218.811C167.814 213.285 168.093 207.642 166.789 201.881C165.223 194.969 162.081 187.202 157.36 178.582C152.64 169.962 146.825 159.946 139.915 148.534L157.997 138.989C165.019 150.894 171.065 161.55 176.136 170.956C181.208 180.362 184.694 189.262 186.595 197.656C189.166 209.012 188.047 219.733 183.237 229.82C178.427 239.906 169.933 246.328 157.754 249.086C153.639 250.018 149.591 250.286 145.608 249.89C141.625 249.494 137.727 248.517 133.914 246.958C134.693 254.222 132.766 260.8 128.131 266.695C123.497 272.589 117.641 276.337 110.564 277.94C102.335 279.803 94.6972 278.548 87.651 274.174C80.6048 269.801 76.1313 263.417 74.2305 255.023C73.2615 250.744 73.2668 246.374 74.2464 241.913C75.226 237.452 77.1458 233.514 80.0057 230.098C72.3478 228.371 65.8637 224.952 60.5534 219.839C55.2431 214.726 51.7121 208.302 49.9604 200.567ZM94.0364 250.798C94.67 253.596 96.1381 255.685 98.4408 257.067C100.743 258.449 103.294 258.823 106.092 258.19C108.89 257.556 111.062 256.069 112.608 253.729C114.154 251.389 114.611 248.82 113.977 246.023C113.344 243.225 111.866 241.094 109.545 239.63C107.224 238.165 104.664 237.75 101.866 238.384C99.0683 239.017 96.9054 240.545 95.3777 242.968C93.8499 245.39 93.4028 248 94.0364 250.798Z" fill="#37B34A"/>
</g>
<defs>
<clipPath id="clip0_384_36135">
<rect width="243" height="243" fill="white" transform="translate(237.361 0.0737305) rotate(77.2406)"/>
</clipPath>
</defs>
</svg>
