<svg width="209" height="181" viewBox="0 0 209 181" fill="none" xmlns="http://www.w3.org/2000/svg">
<path d="M146.459 264.072C151.259 264.072 155.859 263.172 160.259 261.372C164.659 259.572 168.559 256.972 171.959 253.572L233.159 192.072L224.159 182.772C220.959 179.572 217.209 177.422 212.909 176.322C208.609 175.222 204.359 175.272 200.159 176.472L180.359 182.172V84.0718C180.359 80.6718 179.209 77.8218 176.909 75.5218C174.609 73.2218 171.759 72.0718 168.359 72.0718C164.959 72.0718 162.109 73.2218 159.809 75.5218C157.509 77.8218 156.359 80.6718 156.359 84.0718V213.972L185.459 205.872L154.859 236.472C153.859 237.472 152.609 238.322 151.109 239.022C149.609 239.722 148.059 240.072 146.459 240.072H96.3589C89.7589 240.072 84.1089 237.722 79.4089 233.022C74.7089 228.322 72.3589 222.672 72.3589 216.072V168.072C72.3589 164.672 71.2089 161.822 68.9089 159.522C66.6089 157.222 63.7589 156.072 60.3589 156.072C56.9589 156.072 54.1089 157.222 51.8089 159.522C49.5089 161.822 48.3589 164.672 48.3589 168.072V216.072C48.3589 229.272 53.0589 240.572 62.4589 249.972C71.8589 259.372 83.1589 264.072 96.3589 264.072H146.459ZM144.359 180.072V132.072C144.359 128.672 143.209 125.822 140.909 123.522C138.609 121.222 135.759 120.072 132.359 120.072C128.959 120.072 126.109 121.222 123.809 123.522C121.509 125.822 120.359 128.672 120.359 132.072V180.072H144.359ZM108.359 180.072V144.072C108.359 140.672 107.209 137.822 104.909 135.522C102.609 133.222 99.7589 132.072 96.3589 132.072C92.9589 132.072 90.1089 133.222 87.8089 135.522C85.5089 137.822 84.3589 140.672 84.3589 144.072V180.072H108.359ZM264.359 84.0718C258.359 62.8718 244.159 45.5718 221.759 32.1718C199.359 18.7718 173.559 12.0718 144.359 12.0718C125.559 12.0718 107.459 15.1718 90.0589 21.3718C72.6589 27.5718 56.7589 36.5718 42.3589 48.3718V24.0718H24.3589V84.0718H84.3589V66.0718H49.5589C62.7589 54.4718 77.4589 45.5718 93.6589 39.3718C109.859 33.1718 126.759 30.0718 144.359 30.0718C167.959 30.0718 188.809 34.8718 206.909 44.4718C225.009 54.0718 237.859 67.2718 245.459 84.0718H264.359Z" fill="#37B34A"/>
</svg>
