<svg width="32" height="32" viewBox="0 0 32 32" fill="none" xmlns="http://www.w3.org/2000/svg">
<path d="M15.7665 29.3333C15.2332 29.3333 14.7221 29.2333 14.2332 29.0333C13.7443 28.8333 13.3109 28.5444 12.9332 28.1666L6.13317 21.3333L7.13317 20.2999C7.48873 19.9444 7.90539 19.7055 8.38317 19.5833C8.86095 19.461 9.33317 19.4666 9.79984 19.5999L11.9998 20.2333V9.33325C11.9998 8.95547 12.1276 8.63881 12.3832 8.38325C12.6387 8.1277 12.9554 7.99992 13.3332 7.99992C13.7109 7.99992 14.0276 8.1277 14.2832 8.38325C14.5387 8.63881 14.6665 8.95547 14.6665 9.33325V23.7666L11.4332 22.8666L14.8332 26.2666C14.9443 26.3777 15.0832 26.4721 15.2498 26.5499C15.4165 26.6277 15.5887 26.6666 15.7665 26.6666H21.3332C22.0665 26.6666 22.6943 26.4055 23.2165 25.8833C23.7387 25.361 23.9998 24.7333 23.9998 23.9999V18.6666C23.9998 18.2888 24.1276 17.9721 24.3832 17.7166C24.6387 17.461 24.9554 17.3333 25.3332 17.3333C25.7109 17.3333 26.0276 17.461 26.2832 17.7166C26.5387 17.9721 26.6665 18.2888 26.6665 18.6666V23.9999C26.6665 25.4666 26.1443 26.7221 25.0998 27.7666C24.0554 28.811 22.7998 29.3333 21.3332 29.3333H15.7665ZM15.9998 19.9999V14.6666C15.9998 14.2888 16.1276 13.9721 16.3832 13.7166C16.6387 13.461 16.9554 13.3333 17.3332 13.3333C17.7109 13.3333 18.0276 13.461 18.2832 13.7166C18.5387 13.9721 18.6665 14.2888 18.6665 14.6666V19.9999H15.9998ZM19.9998 19.9999V15.9999C19.9998 15.6221 20.1276 15.3055 20.3832 15.0499C20.6387 14.7944 20.9554 14.6666 21.3332 14.6666C21.7109 14.6666 22.0276 14.7944 22.2832 15.0499C22.5387 15.3055 22.6665 15.6221 22.6665 15.9999V19.9999H19.9998ZM2.6665 9.33325C3.33317 6.9777 4.91095 5.05547 7.39984 3.56659C9.88873 2.0777 12.7554 1.33325 15.9998 1.33325C18.0887 1.33325 20.0998 1.6777 22.0332 2.36659C23.9665 3.05547 25.7332 4.05547 27.3332 5.36659V2.66659H29.3332V9.33325H22.6665V7.33325H26.5332C25.0665 6.04436 23.4332 5.05547 21.6332 4.36659C19.8332 3.6777 17.9554 3.33325 15.9998 3.33325C13.3776 3.33325 11.0609 3.86659 9.04984 4.93325C7.03873 5.99992 5.61095 7.46659 4.7665 9.33325H2.6665Z" fill="white"/>
</svg>
