<svg width="99" height="38" viewBox="0 0 99 38" fill="none" xmlns="http://www.w3.org/2000/svg">
<path fill-rule="evenodd" clip-rule="evenodd" d="M0 0.63208H2.90016L18.4281 16.16V26.1897H0V0.63208ZM2.90015 4.80106V23.35H15.5279L2.90015 4.80106Z" fill="#37B34A"/>
<path d="M19.699 14.9297V17.1538L28.913 26.3679H33.3612L22.8763 15.8829L29.5485 9.21068L34.6321 14.2943H29.5485V17.4715H39.7157V14.9297L30.5017 5.71569H28.913L19.699 14.9297Z" fill="#37B34A"/>
<path d="M36.8562 5.71569H32.408L52.7425 26.3679H54.9666V8.57522H65.1338V5.39797H53.6957L52.107 6.9866V21.2843L36.8562 5.71569Z" fill="#37B34A"/>
<path d="M72.7592 15.8829C73.057 13.5305 71.9253 10.7379 70.9912 9.41832C70.3945 8.57522 67.3579 6.03342 65.1167 5.41868L63.5452 8.57522C65.1167 8.57522 67.4624 10.1639 68.2048 11.2128C69.1423 12.5372 69.8997 14.9297 69.5819 15.8829H72.7592Z" fill="#37B34A"/>
<path d="M77.2074 16.5184C77.2074 17.845 76.9264 19.1579 76.3813 20.3784C75.8363 21.5989 75.0384 22.7018 74.0355 23.6209C73.0326 24.54 71.8454 25.2564 70.5451 25.727C69.2447 26.1977 67.8582 26.413 66.4685 26.36C65.0788 26.307 63.7147 25.9867 62.4579 25.4184C61.2012 24.8502 60.0778 24.0456 59.1551 23.053C58.2323 22.0604 57.5294 20.9002 57.0883 19.6421C56.6472 18.384 56.4771 17.0539 56.5882 15.7315L59.599 15.9617C59.5204 16.8972 59.6408 17.8383 59.9528 18.7284C60.2649 19.6185 60.7623 20.4393 61.4151 21.1415C62.0679 21.8438 62.8627 22.413 63.7518 22.8151C64.6409 23.2171 65.606 23.4437 66.5892 23.4812C67.5724 23.5187 68.5534 23.3664 69.4734 23.0334C70.3933 22.7004 71.2333 22.1936 71.9428 21.5433C72.6523 20.893 73.2169 20.1128 73.6025 19.2493C73.9881 18.3858 74.1869 17.4569 74.1869 16.5184H77.2074Z" fill="#37B34A"/>
<path d="M95 15.5652C95 14.2386 94.719 12.9257 94.174 11.7052C93.6289 10.4847 92.831 9.38181 91.8281 8.4627C90.8252 7.54359 89.638 6.8272 88.3377 6.35651C87.0374 5.88582 85.6508 5.67053 84.2611 5.72357C82.8714 5.7766 81.5073 6.09686 80.2506 6.66513C78.9938 7.2334 77.8704 8.03797 76.9477 9.03056C76.025 10.0232 75.322 11.1833 74.8809 12.4414C74.4398 13.6996 74.2697 15.0297 74.3808 16.3521L77.3917 16.1219C77.3131 15.1863 77.4334 14.2453 77.7455 13.3552C78.0575 12.4651 78.5549 11.6443 79.2077 10.942C79.8605 10.2398 80.6553 9.67054 81.5445 9.2685C82.4336 8.86645 83.3987 8.63987 84.3819 8.60235C85.365 8.56483 86.346 8.71715 87.266 9.05015C88.1859 9.38316 89.0259 9.89 89.7354 10.5403C90.445 11.1905 91.0095 11.9708 91.3951 12.8343C91.7807 13.6978 91.9795 14.6266 91.9795 15.5652H95Z" fill="#37B34A"/>
<path d="M74.0301 5.39797H77.2074V26.3679L74.0301 26.3679V5.39797Z" fill="#37B34A"/>
<path d="M91.9759 15.2475H95V26.3346H91.9759V15.2475Z" fill="#37B34A"/>
<path d="M51.3257 28.9123V29.6813H49.1504V35.3679H48.2627V29.6813H46.0874V28.9123H51.3257ZM52.9824 30.5558C53.3164 30.5558 53.6401 30.6349 53.9536 30.7932C54.2671 30.9484 54.5059 31.1506 54.6699 31.3996C54.8281 31.6369 54.9336 31.9138 54.9863 32.2302C55.0332 32.447 55.0566 32.7927 55.0566 33.2673H51.6069C51.6216 33.7448 51.7344 34.1286 51.9453 34.4186C52.1562 34.7057 52.4829 34.8493 52.9253 34.8493C53.3384 34.8493 53.668 34.7131 53.9141 34.4406C54.0547 34.2824 54.1543 34.0993 54.2129 33.8913H54.9907C54.9702 34.0641 54.9014 34.2575 54.7842 34.4714C54.6699 34.6823 54.541 34.8552 54.3975 34.9899C54.1572 35.2243 53.8599 35.3825 53.5054 35.4645C53.3149 35.5114 53.0996 35.5349 52.8594 35.5349C52.2734 35.5349 51.7769 35.3224 51.3696 34.8976C50.9624 34.4699 50.7588 33.8723 50.7588 33.1047C50.7588 32.3488 50.9639 31.735 51.374 31.2634C51.7842 30.7917 52.3203 30.5558 52.9824 30.5558ZM54.2437 32.6389C54.2114 32.2961 54.1367 32.0222 54.0195 31.8171C53.8027 31.4362 53.4409 31.2458 52.9341 31.2458C52.5708 31.2458 52.2661 31.3776 52.02 31.6413C51.7739 31.902 51.6436 32.2346 51.6289 32.6389H54.2437ZM57.8472 30.5251C58.3774 30.5251 58.8081 30.654 59.1392 30.9118C59.4731 31.1696 59.6738 31.6135 59.7412 32.2433H58.9722C58.9253 31.9533 58.8184 31.7131 58.6514 31.5226C58.4844 31.3293 58.2163 31.2326 57.8472 31.2326C57.3433 31.2326 56.9829 31.4787 56.7661 31.9709C56.6255 32.2902 56.5552 32.6843 56.5552 33.153C56.5552 33.6247 56.6548 34.0217 56.854 34.3439C57.0532 34.6662 57.3667 34.8273 57.7944 34.8273C58.1226 34.8273 58.3818 34.7277 58.5723 34.5285C58.7656 34.3264 58.8989 34.051 58.9722 33.7023H59.7412C59.6533 34.3264 59.4336 34.7834 59.082 35.0734C58.7305 35.3605 58.2808 35.5041 57.7329 35.5041C57.1177 35.5041 56.627 35.28 56.2607 34.8317C55.8945 34.3806 55.7114 33.8181 55.7114 33.1442C55.7114 32.3181 55.9121 31.675 56.3135 31.215C56.7148 30.7551 57.2261 30.5251 57.8472 30.5251ZM60.5322 28.8903H61.3232V31.2985C61.5107 31.0612 61.6792 30.8942 61.8286 30.7975C62.0835 30.6306 62.4014 30.5471 62.7822 30.5471C63.4648 30.5471 63.9277 30.7858 64.1709 31.2634C64.3027 31.5241 64.3687 31.8859 64.3687 32.3488V35.3679H63.5557V32.4016C63.5557 32.0558 63.5117 31.8024 63.4238 31.6413C63.2803 31.3835 63.0107 31.2546 62.6152 31.2546C62.2871 31.2546 61.9897 31.3674 61.7231 31.593C61.4565 31.8185 61.3232 32.2448 61.3232 32.8718V35.3679H60.5322V28.8903ZM65.542 30.6613H66.2935V31.3293C66.5161 31.0539 66.752 30.8561 67.001 30.736C67.25 30.6159 67.5269 30.5558 67.8315 30.5558C68.4995 30.5558 68.9507 30.7888 69.1851 31.2546C69.314 31.5095 69.3784 31.8742 69.3784 32.3488V35.3679H68.5742V32.4016C68.5742 32.1144 68.5317 31.883 68.4468 31.7072C68.3062 31.4142 68.0513 31.2678 67.6821 31.2678C67.4946 31.2678 67.3408 31.2868 67.2207 31.3249C67.0039 31.3893 66.8135 31.5182 66.6494 31.7116C66.5176 31.8669 66.4312 32.028 66.3901 32.195C66.3521 32.3591 66.333 32.5949 66.333 32.9025V35.3679H65.542V30.6613ZM72.4194 34.8581C72.9438 34.8581 73.3027 34.6603 73.4961 34.2648C73.6924 33.8664 73.7905 33.424 73.7905 32.9377C73.7905 32.4982 73.7202 32.1408 73.5796 31.8654C73.3569 31.4318 72.9731 31.215 72.4282 31.215C71.9448 31.215 71.5933 31.3996 71.3735 31.7687C71.1538 32.1379 71.0439 32.5832 71.0439 33.1047C71.0439 33.6057 71.1538 34.0231 71.3735 34.3571C71.5933 34.6911 71.9419 34.8581 72.4194 34.8581ZM72.4502 30.5251C73.0566 30.5251 73.5693 30.7272 73.9883 31.1315C74.4072 31.5358 74.6167 32.1306 74.6167 32.9157C74.6167 33.6745 74.4321 34.3015 74.063 34.7966C73.6938 35.2917 73.1211 35.5392 72.3447 35.5392C71.6973 35.5392 71.1831 35.321 70.8022 34.8845C70.4214 34.445 70.231 33.8561 70.231 33.1179C70.231 32.3268 70.4316 31.697 70.833 31.2282C71.2344 30.7595 71.7734 30.5251 72.4502 30.5251ZM75.5835 28.9123H76.3745V35.3679H75.5835V28.9123ZM79.4331 34.8581C79.9575 34.8581 80.3164 34.6603 80.5098 34.2648C80.7061 33.8664 80.8042 33.424 80.8042 32.9377C80.8042 32.4982 80.7339 32.1408 80.5933 31.8654C80.3706 31.4318 79.9868 31.215 79.4419 31.215C78.9585 31.215 78.6069 31.3996 78.3872 31.7687C78.1675 32.1379 78.0576 32.5832 78.0576 33.1047C78.0576 33.6057 78.1675 34.0231 78.3872 34.3571C78.6069 34.6911 78.9556 34.8581 79.4331 34.8581ZM79.4639 30.5251C80.0703 30.5251 80.583 30.7272 81.002 31.1315C81.4209 31.5358 81.6304 32.1306 81.6304 32.9157C81.6304 33.6745 81.4458 34.3015 81.0767 34.7966C80.7075 35.2917 80.1348 35.5392 79.3584 35.5392C78.7109 35.5392 78.1968 35.321 77.8159 34.8845C77.4351 34.445 77.2446 33.8561 77.2446 33.1179C77.2446 32.3268 77.4453 31.697 77.8467 31.2282C78.248 30.7595 78.7871 30.5251 79.4639 30.5251ZM84.2363 30.5778C84.6055 30.5778 84.9277 30.6686 85.2031 30.8503C85.3525 30.9528 85.5049 31.1022 85.6602 31.2985V30.7053H86.3896V34.9855C86.3896 35.5832 86.3018 36.0549 86.126 36.4006C85.7979 37.0392 85.1782 37.3586 84.2671 37.3586C83.7603 37.3586 83.334 37.2443 82.9883 37.0158C82.6426 36.7902 82.4492 36.4357 82.4082 35.9523H83.2124C83.2505 36.1633 83.3267 36.3259 83.4409 36.4401C83.6196 36.6159 83.9009 36.7038 84.2847 36.7038C84.8911 36.7038 85.2881 36.4899 85.4756 36.0622C85.5869 35.8102 85.6382 35.3605 85.6294 34.7131C85.4712 34.9533 85.2808 35.132 85.0581 35.2492C84.8354 35.3664 84.541 35.425 84.1748 35.425C83.665 35.425 83.2183 35.2448 82.8345 34.8845C82.4536 34.5212 82.2632 33.9221 82.2632 33.0871C82.2632 32.299 82.4551 31.6838 82.8389 31.2414C83.2256 30.799 83.6914 30.5778 84.2363 30.5778ZM85.6602 32.9948C85.6602 32.4118 85.54 31.9797 85.2998 31.6984C85.0596 31.4172 84.7534 31.2766 84.3813 31.2766C83.8247 31.2766 83.4438 31.5373 83.2388 32.0588C83.1304 32.3371 83.0762 32.7018 83.0762 33.153C83.0762 33.6833 83.1831 34.0876 83.397 34.3659C83.6138 34.6413 83.9038 34.779 84.2671 34.779C84.8354 34.779 85.2354 34.5226 85.4668 34.0099C85.5957 33.7199 85.6602 33.3815 85.6602 32.9948ZM87.585 30.6833H88.3892V35.3679H87.585V30.6833ZM87.585 28.9123H88.3892V29.8088H87.585V28.9123ZM91.5488 30.5558C91.8828 30.5558 92.2065 30.6349 92.52 30.7932C92.8335 30.9484 93.0723 31.1506 93.2363 31.3996C93.3945 31.6369 93.5 31.9138 93.5527 32.2302C93.5996 32.447 93.623 32.7927 93.623 33.2673H90.1733C90.188 33.7448 90.3008 34.1286 90.5117 34.4186C90.7227 34.7057 91.0493 34.8493 91.4917 34.8493C91.9048 34.8493 92.2344 34.7131 92.4805 34.4406C92.6211 34.2824 92.7207 34.0993 92.7793 33.8913H93.5571C93.5366 34.0641 93.4678 34.2575 93.3506 34.4714C93.2363 34.6823 93.1074 34.8552 92.9639 34.9899C92.7236 35.2243 92.4263 35.3825 92.0718 35.4645C91.8813 35.5114 91.666 35.5349 91.4258 35.5349C90.8398 35.5349 90.3433 35.3224 89.936 34.8976C89.5288 34.4699 89.3252 33.8723 89.3252 33.1047C89.3252 32.3488 89.5303 31.735 89.9404 31.2634C90.3506 30.7917 90.8867 30.5558 91.5488 30.5558ZM92.8101 32.6389C92.7778 32.2961 92.7031 32.0222 92.5859 31.8171C92.3691 31.4362 92.0073 31.2458 91.5005 31.2458C91.1372 31.2458 90.8325 31.3776 90.5864 31.6413C90.3403 31.902 90.21 32.2346 90.1953 32.6389H92.8101ZM95.0688 33.8913C95.0923 34.155 95.1582 34.3571 95.2666 34.4977C95.4658 34.7526 95.8115 34.8801 96.3037 34.8801C96.5967 34.8801 96.8545 34.8171 97.0771 34.6911C97.2998 34.5622 97.4111 34.3644 97.4111 34.0978C97.4111 33.8957 97.3218 33.7419 97.1431 33.6364C97.0288 33.572 96.8032 33.4973 96.4663 33.4123L95.8379 33.2541C95.4365 33.1545 95.1406 33.0432 94.9502 32.9201C94.6104 32.7062 94.4404 32.4103 94.4404 32.0324C94.4404 31.5871 94.6001 31.2267 94.9194 30.9514C95.2417 30.676 95.6738 30.5383 96.2158 30.5383C96.9248 30.5383 97.436 30.7463 97.7495 31.1623C97.9458 31.426 98.041 31.7101 98.0352 32.0148H97.2881C97.2734 31.8361 97.2104 31.6735 97.0991 31.527C96.9175 31.319 96.6025 31.215 96.1543 31.215C95.8555 31.215 95.6284 31.2722 95.4731 31.3864C95.3208 31.5007 95.2446 31.6516 95.2446 31.8391C95.2446 32.0441 95.3457 32.2082 95.5479 32.3312C95.665 32.4045 95.8379 32.4689 96.0664 32.5246L96.5894 32.652C97.1577 32.7897 97.5386 32.923 97.7319 33.0519C98.0396 33.2541 98.1934 33.572 98.1934 34.0056C98.1934 34.4245 98.0337 34.7863 97.7144 35.091C97.3979 35.3957 96.9146 35.548 96.2642 35.548C95.564 35.548 95.0674 35.3898 94.7744 35.0734C94.4844 34.7541 94.3291 34.36 94.3086 33.8913H95.0688Z" fill="black"/>
</svg>
