<svg width="723" height="780" viewBox="0 0 723 780" fill="none" xmlns="http://www.w3.org/2000/svg">
<circle cx="119.425" cy="119.425" r="118.778" transform="matrix(-1 0 0 1 546.425 266.632)" fill="url(#paint0_linear_189_4534)" fill-opacity="0.05" stroke="url(#paint1_linear_189_4534)" stroke-width="1.29263"/>
<circle cx="149.844" cy="149.844" r="149.198" transform="matrix(-1 0 0 1 576.844 240.156)" fill="url(#paint2_linear_189_4534)" fill-opacity="0.05" stroke="url(#paint3_linear_189_4534)" stroke-width="1.29263"/>
<circle cx="190.122" cy="190.122" r="189.476" transform="matrix(-1 0 0 1 616.841 199.596)" fill="url(#paint4_linear_189_4534)" fill-opacity="0.05" stroke="url(#paint5_linear_189_4534)" stroke-width="1.29263"/>
<circle cx="231.526" cy="231.526" r="230.88" transform="matrix(-1 0 0 1 658.526 158.474)" fill="url(#paint6_linear_189_4534)" fill-opacity="0.05" stroke="url(#paint7_linear_189_4534)" stroke-width="1.29263"/>
<path d="M157.251 386.057C157.251 535.036 277.896 655.806 426.718 655.806C575.541 655.806 696.186 535.036 696.186 386.057C696.186 237.078 575.541 116.307 426.718 116.307C277.896 116.307 157.251 237.078 157.251 386.057Z" fill="url(#paint8_linear_189_4534)" fill-opacity="0.05" stroke="url(#paint9_linear_189_4534)" stroke-width="1.29263"/>
<path d="M104.298 386.057C104.298 563.968 248.65 708.195 426.718 708.195C604.786 708.195 749.138 563.968 749.138 386.057C749.138 208.145 604.786 63.918 426.718 63.918C248.65 63.918 104.298 208.145 104.298 386.057Z" fill="url(#paint10_linear_189_4534)" fill-opacity="0.05" stroke="url(#paint11_linear_189_4534)" stroke-width="1.29263"/>
<circle cx="374.611" cy="374.611" r="373.964" transform="matrix(-1 0 0 1 801.611 11.4459)" fill="url(#paint12_linear_189_4534)" fill-opacity="0.05" stroke="url(#paint13_linear_189_4534)" stroke-width="1.29263"/>
<circle cx="427" cy="427" r="426.354" transform="matrix(-1 0 0 1 854 -37)" fill="url(#paint14_linear_189_4534)" fill-opacity="0.05" stroke="url(#paint15_linear_189_4534)" stroke-width="1.29263"/>
<defs>
<linearGradient id="paint0_linear_189_4534" x1="119.425" y1="0" x2="119.425" y2="238.85" gradientUnits="userSpaceOnUse">
<stop stop-color="#6457A4" stop-opacity="0.8"/>
<stop offset="1" stop-color="#37B34A" stop-opacity="0.8"/>
</linearGradient>
<linearGradient id="paint1_linear_189_4534" x1="119.425" y1="0" x2="119.425" y2="238.85" gradientUnits="userSpaceOnUse">
<stop stop-color="white" stop-opacity="0"/>
<stop stop-color="white" stop-opacity="0"/>
<stop offset="0.626596" stop-color="white" stop-opacity="0.33"/>
<stop offset="1" stop-color="white" stop-opacity="0"/>
</linearGradient>
<linearGradient id="paint2_linear_189_4534" x1="149.844" y1="0" x2="149.844" y2="299.689" gradientUnits="userSpaceOnUse">
<stop stop-color="#6457A4" stop-opacity="0.8"/>
<stop offset="1" stop-color="#37B34A" stop-opacity="0.8"/>
</linearGradient>
<linearGradient id="paint3_linear_189_4534" x1="149.844" y1="0" x2="149.844" y2="299.689" gradientUnits="userSpaceOnUse">
<stop stop-color="white" stop-opacity="0"/>
<stop stop-color="white" stop-opacity="0"/>
<stop offset="0.626596" stop-color="white" stop-opacity="0.33"/>
<stop offset="1" stop-color="white" stop-opacity="0"/>
</linearGradient>
<linearGradient id="paint4_linear_189_4534" x1="190.122" y1="0" x2="190.122" y2="380.244" gradientUnits="userSpaceOnUse">
<stop stop-color="#6457A4" stop-opacity="0.8"/>
<stop offset="1" stop-color="#37B34A" stop-opacity="0.8"/>
</linearGradient>
<linearGradient id="paint5_linear_189_4534" x1="190.122" y1="0" x2="190.122" y2="380.244" gradientUnits="userSpaceOnUse">
<stop stop-color="white" stop-opacity="0"/>
<stop stop-color="white" stop-opacity="0"/>
<stop offset="0.626596" stop-color="white" stop-opacity="0.33"/>
<stop offset="1" stop-color="white" stop-opacity="0"/>
</linearGradient>
<linearGradient id="paint6_linear_189_4534" x1="231.526" y1="0" x2="231.526" y2="463.053" gradientUnits="userSpaceOnUse">
<stop stop-color="#6457A4" stop-opacity="0.8"/>
<stop offset="1" stop-color="#37B34A" stop-opacity="0.8"/>
</linearGradient>
<linearGradient id="paint7_linear_189_4534" x1="231.526" y1="0" x2="231.526" y2="463.053" gradientUnits="userSpaceOnUse">
<stop stop-color="white" stop-opacity="0"/>
<stop stop-color="white" stop-opacity="0"/>
<stop offset="0.626596" stop-color="white" stop-opacity="0.33"/>
<stop offset="1" stop-color="white" stop-opacity="0"/>
</linearGradient>
<linearGradient id="paint8_linear_189_4534" x1="426.718" y1="115.661" x2="426.718" y2="656.453" gradientUnits="userSpaceOnUse">
<stop stop-color="#6457A4" stop-opacity="0.8"/>
<stop offset="1" stop-color="#37B34A" stop-opacity="0.8"/>
</linearGradient>
<linearGradient id="paint9_linear_189_4534" x1="426.718" y1="115.661" x2="426.718" y2="656.453" gradientUnits="userSpaceOnUse">
<stop stop-color="white" stop-opacity="0"/>
<stop stop-color="white" stop-opacity="0"/>
<stop offset="0.626596" stop-color="white" stop-opacity="0.33"/>
<stop offset="1" stop-color="white" stop-opacity="0"/>
</linearGradient>
<linearGradient id="paint10_linear_189_4534" x1="426.718" y1="63.2717" x2="426.718" y2="708.842" gradientUnits="userSpaceOnUse">
<stop stop-color="#6457A4" stop-opacity="0.8"/>
<stop offset="1" stop-color="#37B34A" stop-opacity="0.8"/>
</linearGradient>
<linearGradient id="paint11_linear_189_4534" x1="426.718" y1="63.2717" x2="426.718" y2="708.842" gradientUnits="userSpaceOnUse">
<stop stop-color="white" stop-opacity="0"/>
<stop stop-color="white" stop-opacity="0"/>
<stop offset="0.626596" stop-color="white" stop-opacity="0.33"/>
<stop offset="1" stop-color="white" stop-opacity="0"/>
</linearGradient>
<linearGradient id="paint12_linear_189_4534" x1="374.611" y1="0" x2="374.611" y2="749.222" gradientUnits="userSpaceOnUse">
<stop stop-color="#6457A4" stop-opacity="0.8"/>
<stop offset="1" stop-color="#37B34A" stop-opacity="0.8"/>
</linearGradient>
<linearGradient id="paint13_linear_189_4534" x1="374.611" y1="0" x2="374.611" y2="749.222" gradientUnits="userSpaceOnUse">
<stop stop-color="white" stop-opacity="0"/>
<stop stop-color="white" stop-opacity="0"/>
<stop offset="0.626596" stop-color="white" stop-opacity="0.33"/>
<stop offset="1" stop-color="white" stop-opacity="0"/>
</linearGradient>
<linearGradient id="paint14_linear_189_4534" x1="427" y1="0" x2="427" y2="854" gradientUnits="userSpaceOnUse">
<stop stop-color="#6457A4" stop-opacity="0.8"/>
<stop offset="1" stop-color="#37B34A" stop-opacity="0.8"/>
</linearGradient>
<linearGradient id="paint15_linear_189_4534" x1="427" y1="0" x2="427" y2="854" gradientUnits="userSpaceOnUse">
<stop stop-color="white" stop-opacity="0"/>
<stop stop-color="white" stop-opacity="0"/>
<stop offset="0.626596" stop-color="white" stop-opacity="0.33"/>
<stop offset="1" stop-color="white" stop-opacity="0"/>
</linearGradient>
</defs>
</svg>
