<svg width="115" height="48" viewBox="0 0 115 48" fill="none" xmlns="http://www.w3.org/2000/svg">
<g style="mix-blend-mode:plus-lighter">
<path fill-rule="evenodd" clip-rule="evenodd" d="M0 0.0634766L3.51072 0.0634766L22.3077 18.8605V31.0017L0 31.0017L0 0.0634766ZM3.51071 5.11014L3.51071 27.5641L18.797 27.5641L3.51071 5.11014Z" fill="white"/>
<path d="M23.8462 17.3712V20.0635L35 31.2173H40.3846L27.6923 18.525L35.7692 10.4481L41.9231 16.6019H35.7692V20.4481H48.0769V17.3712L36.9231 6.21732L35 6.21732L23.8462 17.3712Z" fill="white"/>
<path d="M44.6154 6.21732L39.2308 6.21732L63.8462 31.2173H66.5385V9.67886L78.8462 9.67886V5.83271L65 5.83271L63.0769 7.75579L63.0769 25.0635L44.6154 6.21732Z" fill="white"/>
<path d="M88.0769 18.525C88.4374 15.6774 87.0674 12.2968 85.9368 10.6995C85.2144 9.67886 81.5385 6.60194 78.8255 5.85779L76.9231 9.67886C78.8255 9.67886 81.665 11.6019 82.5638 12.8717C83.6986 14.4749 84.6154 17.3712 84.2308 18.525H88.0769Z" fill="white"/>
<path d="M93.4615 19.2943C93.4615 20.9001 93.1214 22.4895 92.4616 23.9669C91.8018 25.4443 90.8359 26.7794 89.6219 27.892C88.4079 29.0046 86.9707 29.8718 85.3966 30.4416C83.8226 31.0114 82.1441 31.272 80.4618 31.2078C78.7796 31.1436 77.1283 30.7559 75.607 30.068C74.0857 29.3801 72.7257 28.4062 71.6088 27.2046C70.4918 26.003 69.6408 24.5986 69.1068 23.0756C68.5729 21.5527 68.367 19.9425 68.5015 18.3417L72.1462 18.6204C72.051 19.7529 72.1967 20.892 72.5745 21.9695C72.9522 23.047 73.5543 24.0406 74.3446 24.8907C75.1348 25.7408 76.0969 26.4299 77.1732 26.9166C78.2495 27.4033 79.4178 27.6775 80.608 27.723C81.7982 27.7684 82.9857 27.584 84.0993 27.1809C85.2129 26.7778 86.2297 26.1642 87.0886 25.3771C87.9476 24.5899 88.6309 23.6454 89.0977 22.6001C89.5645 21.5548 89.8051 20.4304 89.8051 19.2943H93.4615Z" fill="white"/>
<path d="M115 18.1404C115 16.5345 114.66 14.9452 114 13.4678C113.34 11.9903 112.374 10.6553 111.16 9.54265C109.946 8.43004 108.509 7.56283 106.935 6.99305C105.361 6.42327 103.683 6.16266 102 6.22686C100.318 6.29105 98.6667 6.67874 97.1454 7.36664C95.6241 8.05455 94.2642 9.0285 93.1472 10.2301C92.0302 11.4316 91.1793 12.836 90.6453 14.359C90.1114 15.882 89.9055 17.4922 90.04 19.0929L93.6847 18.8143C93.5895 17.6818 93.7352 16.5426 94.1129 15.4651C94.4907 14.3876 95.0928 13.394 95.883 12.5439C96.6733 11.6938 97.6354 11.0048 98.7117 10.5181C99.788 10.0314 100.956 9.75712 102.146 9.71171C103.337 9.66629 104.524 9.85067 105.638 10.2538C106.751 10.6569 107.768 11.2704 108.627 12.0576C109.486 12.8447 110.169 13.7893 110.636 14.8346C111.103 15.8798 111.344 17.0043 111.344 18.1404H115Z" fill="white"/>
<path d="M89.6154 5.83271L93.4615 5.83271V31.2173L89.6154 31.2173V5.83271Z" fill="white"/>
<path d="M111.339 17.7558H115V31.177H111.339V17.7558Z" fill="white"/>
</g>
<path d="M55.7317 42.936V36.5738H53.6925V35.7989H58.6477V36.5738H56.527V42.936H55.7317ZM61.0163 43.038C60.4862 43.038 60.0137 42.9224 59.5991 42.6913C59.1913 42.4602 58.8718 42.1374 58.6407 41.7227C58.4096 41.3081 58.294 40.8323 58.294 40.2953C58.294 39.8807 58.3586 39.5068 58.4878 39.1738C58.6169 38.8339 58.797 38.5382 59.0281 38.2867C59.266 38.0352 59.5481 37.8415 59.8744 37.7056C60.2007 37.5628 60.5541 37.4914 60.9348 37.4914C61.295 37.4914 61.6213 37.556 61.9136 37.6852C62.2127 37.8143 62.4676 37.9944 62.6783 38.2255C62.8958 38.4498 63.0589 38.7183 63.1677 39.031C63.2764 39.3437 63.324 39.6869 63.3104 40.0608L63.3002 40.4177H58.865L58.7529 39.7753H62.719L62.5355 39.9486V39.7039C62.5219 39.4592 62.4506 39.2247 62.3214 39.0004C62.1923 38.7693 62.0087 38.5824 61.7708 38.4397C61.5397 38.2969 61.261 38.2255 60.9348 38.2255C60.5541 38.2255 60.2245 38.3037 59.9458 38.46C59.6671 38.6096 59.453 38.8339 59.3034 39.133C59.1539 39.4321 59.0791 39.8025 59.0791 40.2443C59.0791 40.6658 59.1607 41.0328 59.3238 41.3455C59.487 41.6514 59.7181 41.8893 60.0171 42.0592C60.323 42.2291 60.6901 42.3141 61.1183 42.3141C61.3698 42.3141 61.6179 42.2733 61.8626 42.1917C62.1141 42.1034 62.3894 41.9334 62.6885 41.6819L63.0861 42.2325C62.9298 42.3889 62.7428 42.5282 62.5253 42.6506C62.3078 42.7661 62.0699 42.8613 61.8116 42.936C61.5533 43.004 61.2882 43.038 61.0163 43.038ZM66.6396 43.038C66.1366 43.038 65.688 42.919 65.2937 42.6811C64.8995 42.4364 64.5868 42.1068 64.3557 41.6921C64.1314 41.2707 64.0193 40.7949 64.0193 40.2647C64.0193 39.7345 64.1314 39.2621 64.3557 38.8475C64.5868 38.4261 64.8995 38.0964 65.2937 37.8585C65.688 37.6206 66.14 37.5016 66.6498 37.5016C67.1052 37.5016 67.5198 37.5934 67.8937 37.7769C68.2675 37.9536 68.5666 38.2017 68.7909 38.5212L68.3423 39.0718C68.2132 38.9019 68.0568 38.7523 67.8733 38.6232C67.6966 38.494 67.5029 38.3955 67.2921 38.3275C67.0882 38.2527 66.8843 38.2153 66.6804 38.2153C66.3201 38.2153 65.9973 38.3071 65.7118 38.4906C65.4263 38.6674 65.1986 38.9087 65.0287 39.2145C64.8655 39.5204 64.784 39.8705 64.784 40.2647C64.784 40.659 64.8655 41.0124 65.0287 41.3251C65.1986 41.631 65.4263 41.8723 65.7118 42.049C65.9973 42.2257 66.3167 42.3141 66.6702 42.3141C66.8741 42.3141 67.0746 42.2835 67.2717 42.2223C67.4689 42.1544 67.6558 42.0592 67.8325 41.9368C68.0092 41.8145 68.1724 41.6616 68.3219 41.478L68.7705 42.0286C68.5394 42.3345 68.2302 42.5792 67.8427 42.7627C67.4553 42.9462 67.0542 43.038 66.6396 43.038ZM69.7633 42.936V35.3911H70.528V38.7761L70.375 38.9291C70.4498 38.6504 70.5891 38.4057 70.7931 38.195C70.997 37.9774 71.2349 37.8075 71.5068 37.6852C71.7855 37.5628 72.0675 37.5016 72.353 37.5016C72.7609 37.5016 73.1007 37.5798 73.3726 37.7361C73.6445 37.8925 73.845 38.1338 73.9742 38.46C74.1101 38.7863 74.1781 39.2009 74.1781 39.7039V42.936H73.4032V39.7447C73.4032 39.3913 73.3556 39.1024 73.2605 38.8781C73.1721 38.647 73.0328 38.477 72.8424 38.3683C72.6521 38.2595 72.4142 38.2085 72.1287 38.2153C71.9044 38.2153 71.6937 38.2561 71.4966 38.3377C71.2995 38.4125 71.1295 38.5178 70.9868 38.6538C70.844 38.7897 70.7319 38.946 70.6503 39.1228C70.5688 39.2995 70.528 39.4898 70.528 39.6937V42.936H70.1507C70.1031 42.936 70.0488 42.936 69.9876 42.936C69.9264 42.936 69.8516 42.936 69.7633 42.936ZM75.6379 42.936V37.6138H76.3924L76.4229 38.7251L76.3006 38.7761C76.3686 38.545 76.5011 38.3343 76.6982 38.144C76.8954 37.9536 77.1299 37.8007 77.4017 37.6852C77.6804 37.5628 77.9659 37.5016 78.2582 37.5016C78.6524 37.5016 78.9821 37.5798 79.2472 37.7361C79.5123 37.8925 79.7128 38.1338 79.8488 38.46C79.9847 38.7863 80.0527 39.2009 80.0527 39.7039V42.936H79.2778V39.7447C79.2778 39.3913 79.2302 39.1024 79.135 38.8781C79.0467 38.647 78.9073 38.477 78.717 38.3683C78.5267 38.2595 78.2922 38.2085 78.0135 38.2153C77.7824 38.2153 77.5683 38.2561 77.3712 38.3377C77.174 38.4125 77.0041 38.5178 76.8614 38.6538C76.7186 38.7897 76.6065 38.946 76.5249 39.1228C76.4433 39.2995 76.4026 39.4898 76.4026 39.6937V42.936H76.0253C75.9777 42.936 75.9233 42.936 75.8622 42.936C75.801 42.936 75.7262 42.936 75.6379 42.936ZM83.8677 43.038C83.3375 43.038 82.8651 42.919 82.4505 42.6811C82.0426 42.4432 81.7198 42.1136 81.4819 41.6921C81.2507 41.2707 81.1352 40.7915 81.1352 40.2545C81.1352 39.7243 81.2507 39.2519 81.4819 38.8373C81.7198 38.4227 82.0426 38.0964 82.4505 37.8585C82.8651 37.6206 83.3375 37.5016 83.8677 37.5016C84.3911 37.5016 84.8567 37.6206 85.2645 37.8585C85.6792 38.0964 86.002 38.4227 86.2331 38.8373C86.471 39.2519 86.59 39.7243 86.59 40.2545C86.59 40.7915 86.471 41.2707 86.2331 41.6921C86.002 42.1136 85.6792 42.4432 85.2645 42.6811C84.8567 42.919 84.3911 43.038 83.8677 43.038ZM83.8677 42.3141C84.2415 42.3141 84.5746 42.2257 84.8669 42.049C85.1592 41.8655 85.3869 41.6208 85.55 41.3149C85.7131 41.0022 85.7947 40.6488 85.7947 40.2545C85.7947 39.8603 85.7131 39.5102 85.55 39.2043C85.3869 38.8985 85.1592 38.6606 84.8669 38.4906C84.5746 38.3139 84.2415 38.2255 83.8677 38.2255C83.4938 38.2255 83.1574 38.3139 82.8583 38.4906C82.566 38.6606 82.3349 38.9019 82.165 39.2145C82.0018 39.5204 81.9237 39.8671 81.9305 40.2545C81.9237 40.6488 82.0018 41.0022 82.165 41.3149C82.3349 41.6208 82.566 41.8655 82.8583 42.049C83.1574 42.2257 83.4938 42.3141 83.8677 42.3141ZM87.726 42.936V35.3911H88.4907V42.936H87.726ZM92.2514 43.038C91.7212 43.038 91.2488 42.919 90.8342 42.6811C90.4263 42.4432 90.1035 42.1136 89.8656 41.6921C89.6345 41.2707 89.5189 40.7915 89.5189 40.2545C89.5189 39.7243 89.6345 39.2519 89.8656 38.8373C90.1035 38.4227 90.4263 38.0964 90.8342 37.8585C91.2488 37.6206 91.7212 37.5016 92.2514 37.5016C92.7748 37.5016 93.2404 37.6206 93.6482 37.8585C94.0629 38.0964 94.3857 38.4227 94.6168 38.8373C94.8547 39.2519 94.9737 39.7243 94.9737 40.2545C94.9737 40.7915 94.8547 41.2707 94.6168 41.6921C94.3857 42.1136 94.0629 42.4432 93.6482 42.6811C93.2404 42.919 92.7748 43.038 92.2514 43.038ZM92.2514 42.3141C92.6253 42.3141 92.9583 42.2257 93.2506 42.049C93.5429 41.8655 93.7706 41.6208 93.9337 41.3149C94.0969 41.0022 94.1784 40.6488 94.1784 40.2545C94.1784 39.8603 94.0969 39.5102 93.9337 39.2043C93.7706 38.8985 93.5429 38.6606 93.2506 38.4906C92.9583 38.3139 92.6253 38.2255 92.2514 38.2255C91.8776 38.2255 91.5411 38.3139 91.242 38.4906C90.9497 38.6606 90.7186 38.9019 90.5487 39.2145C90.3856 39.5204 90.3074 39.8671 90.3142 40.2545C90.3074 40.6488 90.3856 41.0022 90.5487 41.3149C90.7186 41.6208 90.9497 41.8655 91.242 42.049C91.5411 42.2257 91.8776 42.3141 92.2514 42.3141ZM98.3834 45.2811C97.9892 45.2811 97.6153 45.2199 97.2619 45.0976C96.9084 44.9752 96.6161 44.8223 96.385 44.6387L96.6909 43.9964C96.8269 44.1052 96.9832 44.2003 97.1599 44.2819C97.3435 44.3703 97.5406 44.4382 97.7513 44.4858C97.962 44.5402 98.1761 44.5674 98.3936 44.5674C98.7879 44.5674 99.1209 44.4926 99.3928 44.3431C99.6715 44.2003 99.8822 43.9862 100.025 43.7007C100.175 43.4152 100.249 43.0618 100.249 42.6404V41.6208L100.372 41.5902C100.31 41.8485 100.178 42.0898 99.974 42.3141C99.7701 42.5316 99.522 42.7083 99.2297 42.8443C98.9374 42.9734 98.6281 43.038 98.3019 43.038C97.8057 43.038 97.3604 42.919 96.9662 42.6811C96.5788 42.4432 96.2729 42.117 96.0486 41.7023C95.8243 41.2809 95.7121 40.8051 95.7121 40.2749C95.7121 39.7379 95.8243 39.2621 96.0486 38.8475C96.2797 38.4261 96.589 38.0964 96.9764 37.8585C97.3638 37.6206 97.7989 37.5016 98.2815 37.5016C98.4922 37.5016 98.6961 37.5288 98.8932 37.5832C99.0903 37.6308 99.2705 37.7022 99.4336 37.7973C99.6035 37.8925 99.7565 38.0012 99.8924 38.1236C100.028 38.2459 100.141 38.3785 100.229 38.5212C100.324 38.664 100.392 38.8101 100.433 38.9596L100.219 38.9291L100.249 37.6138H101.014V42.6098C101.014 43.038 100.953 43.4152 100.83 43.7415C100.708 44.0746 100.528 44.3533 100.29 44.5776C100.059 44.8087 99.7803 44.982 99.454 45.0976C99.1345 45.2199 98.7777 45.2811 98.3834 45.2811ZM98.3936 42.3039C98.7539 42.3039 99.0734 42.2189 99.352 42.049C99.6375 41.8723 99.8618 41.631 100.025 41.3251C100.188 41.0192 100.27 40.6658 100.27 40.2647C100.27 39.8705 100.188 39.5204 100.025 39.2145C99.8686 38.9087 99.6477 38.6674 99.3622 38.4906C99.0768 38.3139 98.7539 38.2255 98.3936 38.2255C98.0266 38.2255 97.7003 38.3139 97.4148 38.4906C97.1361 38.6674 96.9152 38.9087 96.7521 39.2145C96.589 39.5204 96.5074 39.8705 96.5074 40.2647C96.5074 40.6522 96.5856 41.0022 96.7419 41.3149C96.905 41.6208 97.1259 41.8621 97.4046 42.0388C97.6901 42.2155 98.0198 42.3039 98.3936 42.3039ZM102.706 42.936V37.6138H103.47V42.936H102.706ZM103.083 36.4617C102.892 36.4617 102.746 36.4141 102.644 36.3189C102.549 36.217 102.502 36.081 102.502 35.9111C102.502 35.7411 102.553 35.6052 102.655 35.5032C102.757 35.4013 102.899 35.3503 103.083 35.3503C103.266 35.3503 103.409 35.4013 103.511 35.5032C103.613 35.5984 103.664 35.7343 103.664 35.9111C103.664 36.0742 103.613 36.2068 103.511 36.3087C103.409 36.4107 103.266 36.4617 103.083 36.4617ZM107.485 43.038C106.955 43.038 106.483 42.9224 106.068 42.6913C105.66 42.4602 105.341 42.1374 105.11 41.7227C104.878 41.3081 104.763 40.8323 104.763 40.2953C104.763 39.8807 104.828 39.5068 104.957 39.1738C105.086 38.8339 105.266 38.5382 105.497 38.2867C105.735 38.0352 106.017 37.8415 106.343 37.7056C106.67 37.5628 107.023 37.4914 107.404 37.4914C107.764 37.4914 108.09 37.556 108.382 37.6852C108.682 37.8143 108.936 37.9944 109.147 38.2255C109.365 38.4498 109.528 38.7183 109.637 39.031C109.745 39.3437 109.793 39.6869 109.779 40.0608L109.769 40.4177H105.334L105.222 39.7753H109.188L109.004 39.9486V39.7039C108.991 39.4592 108.919 39.2247 108.79 39.0004C108.661 38.7693 108.478 38.5824 108.24 38.4397C108.009 38.2969 107.73 38.2255 107.404 38.2255C107.023 38.2255 106.693 38.3037 106.415 38.46C106.136 38.6096 105.922 38.8339 105.772 39.133C105.623 39.4321 105.548 39.8025 105.548 40.2443C105.548 40.6658 105.63 41.0328 105.793 41.3455C105.956 41.6514 106.187 41.8893 106.486 42.0592C106.792 42.2291 107.159 42.3141 107.587 42.3141C107.839 42.3141 108.087 42.2733 108.331 42.1917C108.583 42.1034 108.858 41.9334 109.157 41.6819L109.555 42.2325C109.399 42.3889 109.212 42.5282 108.994 42.6506C108.777 42.7661 108.539 42.8613 108.281 42.936C108.022 43.004 107.757 43.038 107.485 43.038ZM112.609 43.038C112.153 43.038 111.746 42.953 111.385 42.7831C111.025 42.6132 110.74 42.3889 110.529 42.1102L111.069 41.6412C111.266 41.8791 111.498 42.0592 111.763 42.1815C112.035 42.3039 112.337 42.3651 112.67 42.3651C112.84 42.3651 112.993 42.3481 113.129 42.3141C113.265 42.2733 113.384 42.2155 113.486 42.1408C113.588 42.066 113.666 41.9776 113.72 41.8757C113.775 41.7737 113.802 41.6616 113.802 41.5392C113.802 41.3149 113.703 41.128 113.506 40.9784C113.418 40.9173 113.292 40.8561 113.129 40.7949C112.966 40.7269 112.769 40.6624 112.538 40.6012C112.157 40.4924 111.841 40.3837 111.589 40.2749C111.338 40.1594 111.141 40.0268 110.998 39.8773C110.896 39.7549 110.818 39.6224 110.763 39.4796C110.716 39.3369 110.692 39.1806 110.692 39.0106C110.692 38.7931 110.736 38.5926 110.825 38.4091C110.92 38.2255 111.049 38.0658 111.212 37.9299C111.382 37.7871 111.579 37.6818 111.803 37.6138C112.035 37.539 112.283 37.5016 112.548 37.5016C112.799 37.5016 113.047 37.5356 113.292 37.6036C113.537 37.6716 113.764 37.7701 113.975 37.8993C114.186 38.0284 114.366 38.1814 114.516 38.3581L114.047 38.8679C113.917 38.7319 113.775 38.6096 113.618 38.5008C113.462 38.3921 113.295 38.3071 113.119 38.2459C112.949 38.1848 112.772 38.1542 112.589 38.1542C112.425 38.1542 112.272 38.1746 112.13 38.2153C111.994 38.2561 111.875 38.3139 111.773 38.3887C111.678 38.4566 111.603 38.5416 111.549 38.6436C111.501 38.7455 111.477 38.8577 111.477 38.98C111.477 39.082 111.498 39.1738 111.538 39.2553C111.579 39.3369 111.637 39.4083 111.712 39.4694C111.807 39.5442 111.939 39.6156 112.109 39.6836C112.286 39.7447 112.504 39.8093 112.762 39.8773C113.061 39.9588 113.312 40.0438 113.516 40.1322C113.727 40.2137 113.9 40.3123 114.036 40.4278C114.22 40.5638 114.349 40.7201 114.424 40.8969C114.505 41.0736 114.546 41.2741 114.546 41.4984C114.546 41.7975 114.461 42.0626 114.291 42.2937C114.128 42.5248 113.9 42.7083 113.608 42.8443C113.316 42.9734 112.983 43.038 112.609 43.038Z" fill="#C0C0C0"/>
</svg>
